<?xml version="1.0" standalone="no"?>
<!DOCTYPE svg PUBLIC "-//W3C//DTD SVG 1.1//EN" "http://www.w3.org/Graphics/SVG/1.1/DTD/svg11.dtd" >
<svg xmlns="http://www.w3.org/2000/svg">
<metadata></metadata>
<defs>
<font id="cooper_black_fsitalic" horiz-adv-x="1148" >
<font-face units-per-em="2048" ascent="1638" descent="-410" />
<missing-glyph horiz-adv-x="512" />
<glyph horiz-adv-x="2048" />
<glyph horiz-adv-x="2048" />
<glyph unicode="&#xd;" horiz-adv-x="2048" />
<glyph unicode=" "  horiz-adv-x="512" />
<glyph unicode="&#x09;" horiz-adv-x="512" />
<glyph unicode="&#xa0;" horiz-adv-x="512" />
<glyph unicode="!" horiz-adv-x="632" d="M109 180q0 94 67 158.5t164 64.5t154 -55t57 -147q0 -99 -66 -163.5t-168 -64.5q-92 0 -150 58t-58 149zM184 1130q0 75 17 121.5t55 77.5q77 64 197 64q104 0 162.5 -54t58.5 -149q0 -202 -156 -498q-53 -100 -84 -135t-69 -35q-44 0 -76 66q-43 89 -74 249.5t-31 292.5 z" />
<glyph unicode="&#x22;" horiz-adv-x="1034" d="M260 1100q0 127 56 206.5t145 79.5q61 0 99 -47t38 -122q0 -83 -39 -187.5t-102 -189.5q-60 -78 -86 -78q-35 0 -73 115.5t-38 222.5zM680 1100q0 127 56 206.5t145 79.5q61 0 99 -47t38 -122q0 -83 -39 -187.5t-102 -189.5q-60 -78 -86 -78q-35 0 -73 115.5t-38 222.5z " />
<glyph unicode="#" d="M76 377q0 9 12.5 30.5t58.5 90.5q29 41 54.5 59t56.5 18q6 0 22.5 -2t22.5 -2q14 0 21.5 8.5t13.5 30.5l14 54q6 20 6 26q0 17 -30 17q-3 0 -12.5 -1.5t-30 -2.5t-52.5 -1h-20q-39 0 -39 29q0 10 12 30t62 91q29 43 53 60.5t55 17.5q7 0 23.5 -2t21.5 -2q9 0 16 3.5 t12 12.5t9 23l11 39l16 65l10 72q8 43 37 63q21 13 62 29t81 27.5t58 11.5q8 0 14.5 -3.5t10 -9.5t3.5 -14q0 -1 -12 -39l-10 -30q-3 -6 -19 -64l-38 -139q-9 -30 -9 -33q0 -20 41 -20h51q31 0 42 8t20 39l10 37q17 61 27 135q5 27 12.5 41t24.5 24q32 20 102 44t98 24 q12 0 20.5 -7.5t8.5 -19.5q0 -7 -12 -39q-20 -60 -29 -94l-39 -137q-8 -33 -8 -37t1 -7t3.5 -5.5t7.5 -3.5t11 -1.5t16 -0.5q32 0 65.5 2t47.5 2q12 0 20 -7.5t8 -19.5q0 -15 -10.5 -34.5t-56.5 -88.5q-52 -78 -97 -78q-7 0 -30.5 3t-30.5 3q-12 0 -19.5 -8t-13.5 -28 l-12 -43q-8 -24 -8 -35q0 -25 51 -25q18 0 51 3t47 3q12 0 20.5 -7t8.5 -19q0 -24 -68 -123q-54 -78 -96 -78q-7 0 -30 3t-31 3q-22 0 -33 -37q-34 -133 -43 -184q-8 -57 -41 -80q-24 -18 -101 -46t-100 -28q-12 0 -20.5 8.5t-8.5 20.5q0 7 11 39q10 30 19 58.5t20.5 68.5 t21.5 72l14 47q9 28 9 39q0 28 -37 28h-60q-41 0 -53 -41l-6 -22q-23 -83 -37 -164q-10 -56 -41 -80q-27 -18 -103 -46t-100 -28q-10 0 -18 9t-8 20q0 10 10 39q33 94 61 199l13 45q10 37 10 43q0 11 -12.5 17.5t-32.5 6.5q-3 0 -8.5 -1t-22 -2t-45.5 -1h-22q-17 0 -27 8.5 t-10 20.5zM553 584q0 -19 35 -19h65q27 0 36 7t16 34l16 56q6 21 6 28t-3 11t-10 6t-20 2h-67q-27 0 -36 -7t-16 -34l-16 -56q-6 -23 -6 -28z" />
<glyph unicode="$" d="M61 233q0 71 40.5 123t95.5 52q17 0 30.5 -6t26.5 -19t27 -35q27 -44 42.5 -66.5t22.5 -30t25 -24.5q70 -61 151 -61q55 0 92 30.5t37 75.5q0 34 -21.5 59t-76.5 52q-186 95 -274.5 197.5t-88.5 222.5q0 64 24 126t68 114.5t103 89.5q9 6 15.5 9.5t12 7t13 6.5t13 5.5 t17.5 6t21.5 7t30 9.5t37.5 12q14 5 18.5 11t5.5 24l4 39l3 27t3.5 19.5t4 15t6.5 9.5t9 6.5t14 3t18 1.5h24q43 0 69 -0.5t47.5 -2t31.5 -4t17.5 -7t9 -10t1.5 -15.5q0 -13 -2 -21l-2 -22q-4 -38 -4 -47q0 -12 7.5 -18t27.5 -7q108 -14 219 -80q74 -45 74 -102 q0 -65 -44 -125t-93 -60q-25 0 -47.5 14.5t-63.5 57.5q-88 98 -180 98q-40 0 -68 -25.5t-28 -60.5q0 -74 116 -131q152 -76 201 -106.5t84 -71.5q80 -92 80 -215q0 -114 -65 -211t-181 -157q-58 -28 -139 -39q-28 -5 -36 -11.5t-9 -27.5l-4 -39q-3 -30 -15.5 -41t-47 -15 t-122.5 -4q-36 0 -53 15.5t-14 44.5l4 35v14q0 14 -8 19.5t-41 9.5q-144 22 -252 106q-34 28 -49 61t-15 82z" />
<glyph unicode="%" horiz-adv-x="1501" d="M53 961q0 180 134.5 307t324.5 127q141 0 220 -75t79 -208q0 -94 -51.5 -188t-136.5 -152q-112 -78 -265 -78q-141 0 -223 72t-82 195zM307 41q0 18 21 53q73 113 105 163.5t59.5 95.5t87.5 145l303 514q77 131 104 180t60 117q25 51 48 68.5t66 17.5q96 0 96 -47 q0 -21 -16 -52.5t-61 -97.5q-124 -192 -166 -264q-19 -33 -158.5 -268t-210.5 -361q-15 -27 -34 -61.5t-28.5 -52.5t-13.5 -23l-43 -84q-28 -56 -48.5 -75t-53.5 -19q-50 0 -83.5 14.5t-33.5 36.5zM360 899q0 -61 46 -61t63 86q14 59 26.5 145t12.5 121q0 67 -45 67 q-44 0 -64 -71q-14 -44 -26.5 -138t-12.5 -149zM756 254q0 71 23 137.5t65.5 120t98.5 93.5t126 61.5t145 21.5q141 0 220 -74.5t79 -207.5q0 -62 -23.5 -125.5t-66 -118.5t-98.5 -94q-112 -78 -264 -78q-141 0 -223 71t-82 193zM1063 195q0 -62 45 -62q46 0 63 86 q14 59 26.5 144t12.5 120q0 68 -45 68q-42 0 -63 -70q-14 -46 -26.5 -138.5t-12.5 -147.5z" />
<glyph unicode="&#x26;" horiz-adv-x="1843" d="M109 571q0 177 96 287q38 42 86.5 71t142.5 66q32 12 38.5 21.5t4.5 42.5q-3 136 76 209q117 114 324 114q132 0 233.5 -57t101.5 -131q0 -38 -30.5 -70t-67.5 -32q-16 0 -28 4.5t-52 27.5q-48 25 -84 25q-44 0 -73 -30t-29 -75q0 -36 14 -54.5t66 -51.5q28 -16 28 -41 q0 -38 -49 -76.5t-100 -38.5q-37 0 -82 25q-23 14 -31 14q-31 0 -60.5 -73.5t-29.5 -151.5q0 -161 93.5 -269t232.5 -108q83 0 140.5 48t57.5 116q0 40 -23.5 66t-60.5 26q-27 0 -69 -29q-33 -24 -55 -24q-31 0 -53.5 31t-22.5 75q0 100 147 179q71 38 120 59t278 113 q178 73 178 165q0 31 -16.5 53.5t-39.5 22.5q-14 0 -55 -20q-16 -8 -33 -8q-22 0 -36.5 18t-14.5 43q0 70 79 127t175 57q121 0 196.5 -82.5t75.5 -214.5q0 -79 -30.5 -154.5t-87.5 -133.5q-71 -74 -219 -121q-88 -29 -88 -56q0 -14 18 -38q47 -65 47 -123 q0 -119 -96.5 -220.5t-262.5 -161t-360 -59.5q-205 0 -367.5 76t-252.5 212.5t-90 309.5z" />
<glyph unicode="'" horiz-adv-x="614" d="M260 1100q0 127 56 206.5t145 79.5q61 0 99 -47t38 -122q0 -83 -39 -187.5t-102 -189.5q-60 -78 -86 -78q-35 0 -73 115.5t-38 222.5z" />
<glyph unicode="(" horiz-adv-x="1103" d="M221 383q0 259 58 438.5t192 331.5q209 240 469 240q98 0 154.5 -33t56.5 -90q0 -29 -16 -48.5t-41 -19.5q-2 0 -53.5 8.5t-57.5 8.5q-146 0 -250 -297q-40 -120 -77.5 -354.5t-37.5 -372.5q0 -110 25 -202t68 -138q50 -56 135 -56q13 0 79 8.5t83 8.5q61 0 61 -68 q0 -65 -55 -91t-191 -26q-296 0 -449 191t-153 561z" />
<glyph unicode=")" horiz-adv-x="1103" d="M14 -246q0 29 16.5 48.5t41.5 19.5q2 0 53 -8.5t57 -8.5q149 0 250 297q41 122 78 356t37 376q0 105 -25.5 196.5t-66.5 138.5q-50 56 -136 56q-26 0 -102 -8q-47 -7 -55 -7q-66 0 -66 66t54.5 91.5t191.5 25.5q296 0 449 -191t153 -561q0 -259 -58 -438.5t-192 -331.5 q-208 -240 -469 -240q-99 0 -155 32.5t-56 90.5z" />
<glyph unicode="*" d="M258 1075q0 14 13.5 47.5t31.5 65.5q25 43 53 43q22 0 70 -25l123 -65q16 -8 24 -8q16 0 19 30l12 137q4 53 18.5 73t47.5 20q68 0 123 -19q36 -13 36 -53q0 -10 -8 -51l-24 -135l-2 -19q0 -6 5.5 -12t12.5 -6l18 2l136 30q56 7 57 7q23 0 34 -11t19 -39q21 -79 21 -104 q0 -32 -20 -47.5t-72 -22.5l-138 -18q-30 -3 -30 -18q0 -8 10 -25l67 -119q29 -56 29 -71q0 -29 -53 -60q-74 -43 -103 -43q-28 0 -65 72l-59 123q-12 24 -25 24q-9 0 -25 -16l-90 -103q-47 -53 -75 -53q-23 0 -77.5 52.5t-54.5 74.5q0 31 50 78l98 94q16 16 16 27t-24 22 l-125 56q-40 18 -57 32.5t-17 32.5z" />
<glyph unicode="+" d="M125 502q0 16 21 77t36 91q25 45 68 45q29 0 92 -6.5t74 -6.5h24q56 0 56 56v63q0 50 -13 137q-2 8 -2 23q0 19 14.5 33.5t49.5 29.5q39 16 90 31t70 15q17 0 29.5 -12t10.5 -27q0 -2 -0.5 -5.5t-1.5 -10t-2 -11.5q-2 -12 -2 -94v-172q0 -26 15 -41t41 -15h153q72 0 96 3 q20 4 25 4q15 2 27 -10t12 -29q0 -24 -17 -80t-34 -88q-24 -47 -58 -47q-6 0 -69 7t-90 7h-45q-31 0 -43.5 -12t-12.5 -43v-17q0 -67 11 -164q2 -10 2 -30q0 -23 -14.5 -40t-47.5 -32q-32 -14 -89.5 -32.5t-70.5 -18.5q-17 0 -29 13.5t-12 33.5v20q7 64 7 199v68 q0 31 -12.5 43t-43.5 12h-49q-66 0 -130 -3t-89 -3q-20 0 -33.5 12t-13.5 27z" />
<glyph unicode="," horiz-adv-x="626" d="M84 205q0 97 55 153t152 56q110 0 171.5 -71t61.5 -200q0 -150 -116 -329q-50 -77 -104.5 -128t-88.5 -51q-29 0 -64.5 35t-35.5 62q0 18 35 61q37 44 60 90.5t23 75.5q0 18 -8 29t-32 24q-57 34 -83 80t-26 113z" />
<glyph unicode="-" horiz-adv-x="581" d="M41 410q0 31 24 108t46 115q28 48 50 67t52 19t55 -4q139 -15 187 -15q65 0 118 11q6 2 17 2q33 0 33 -47q0 -43 -19 -109.5t-49 -128.5q-23 -49 -40 -65.5t-44 -16.5q-10 0 -45 6q-107 15 -205 15q-13 0 -46 -2.5t-42 -2.5l-49 -2q-43 -3 -43 50z" />
<glyph unicode="." horiz-adv-x="626" d="M82 180q0 94 67 158.5t164 64.5t154 -55t57 -147q0 -100 -66 -164t-167 -64q-92 0 -150.5 58t-58.5 149z" />
<glyph unicode="/" horiz-adv-x="815" d="M-92 -281q0 21 13.5 51t88.5 175q48 88 92 192l363 826q8 19 22.5 56.5t22.5 55.5q4 16 44.5 111.5t47.5 116.5q19 54 40 72t65 18q163 0 163 -84q0 -19 -15 -52.5t-99 -199.5q-53 -108 -82 -172l-361 -824q-70 -158 -96 -231q-47 -126 -72 -160q-27 -39 -79 -39 q-69 0 -113.5 25t-44.5 63z" />
<glyph unicode="0" d="M102 496q0 194 76.5 349.5t212 243t305.5 87.5q247 0 375 -181q88 -128 88 -333q0 -132 -44.5 -254.5t-123 -216t-194 -149.5t-248.5 -56q-181 0 -303 110q-67 58 -105.5 165t-38.5 235zM510 311q0 -69 14.5 -100t48.5 -31q62 0 89 94q28 92 52.5 279t24.5 303 q0 63 -14.5 90t-48.5 27q-45 0 -70.5 -47t-48.5 -174q-47 -266 -47 -441z" />
<glyph unicode="1" d="M164 115q0 37 20 57q15 17 31 21.5t94 13.5q28 3 53.5 32t34.5 68q14 56 30.5 193t16.5 194q0 104 -67 107q-13 0 -25 -4.5t-69 -30.5q-16 -8 -33 -8q-25 0 -40 24t-15 64q0 60 45 100.5t166 87.5q129 52 283.5 89.5t234.5 37.5q106 0 106 -86q0 -64 -65 -104 q-37 -23 -47.5 -50t-30.5 -147q-13 -76 -27 -224.5t-14 -213.5q0 -88 33 -105q11 -6 17.5 -8t29 -4t73.5 -4q70 -3 70 -76q0 -70 -82 -104q-53 -22 -187 -36.5t-270 -14.5q-269 0 -337 55q-29 25 -29 76z" />
<glyph unicode="2" d="M59 90q0 40 39.5 87.5t157.5 146.5q142 123 274 290q86 112 86 181q0 38 -24 62t-64 24q-65 0 -168 -76q-66 -50 -88 -62t-45 -12q-38 0 -70 37.5t-32 83.5q0 47 55.5 102.5t159.5 110.5q208 111 408 111q154 0 246.5 -69t92.5 -183q0 -67 -24 -120t-91 -131t-218 -227 q-49 -49 -49 -79q0 -20 27 -27.5t106 -7.5q29 0 49 15.5t53 62.5q21 30 38.5 41.5t43.5 11.5q82 0 82 -113q0 -164 -76 -319q-59 -115 -135 -115q-22 0 -36 10t-28 35q-13 21 -20.5 27.5t-22 9t-53.5 2.5h-469q-83 0 -109.5 3t-52.5 17q-19 11 -31 30.5t-12 39.5z" />
<glyph unicode="3" d="M76 16q0 38 22.5 66.5t51.5 28.5q15 0 53 -17q35 -16 56.5 -24t43 -14t39.5 -7.5t45 -1.5q118 0 186 61.5t68 167.5q0 38 -11.5 66.5t-32.5 44.5t-48 16q-12 0 -47 -6t-47 -6q-80 0 -80 119q0 44 9 60.5t40 25.5q88 26 138 77.5t50 114.5q0 42 -25 67.5t-67 25.5 q-48 0 -91.5 -22.5t-117.5 -86.5q-34 -27 -61 -27q-35 0 -64.5 35t-29.5 78q0 97 157 186q222 130 416 130q154 0 244 -68.5t90 -185.5q0 -109 -90 -215q-27 -34 -27 -43q0 -19 41 -52q71 -57 96 -105.5t25 -131.5q0 -76 -31.5 -165.5t-81.5 -154.5q-83 -109 -225 -171 t-305 -62q-167 0 -278 55.5t-111 140.5z" />
<glyph unicode="4" d="M43 193q0 88 22.5 153t79.5 143q94 128 250.5 314t257.5 289q95 95 165 132.5t155 37.5q74 0 108.5 -21t34.5 -67q0 -34 -6 -74l-86 -658l-4 -41q0 -22 33 -22h16q23 0 33 -8.5t10 -28.5q0 -17 -2 -25q0 -8 -2 -14l-18 -194q-3 -29 -14 -41.5t-34 -12.5h-36 q-23 0 -28.5 -4t-8.5 -26l-15 -119q-4 -42 -16 -53t-49 -11h-266q-35 0 -50.5 11t-15.5 36q0 9 4 37l6 72q1 10 2 19t1.5 13t0.5 5q0 13 -8 16.5t-39 3.5h-358q-73 0 -98 28t-25 110zM350 416q0 -23 35 -30t145 -7q57 0 75 18.5t24 81.5l20 234q2 4 2 41q0 32 -18 32 q-21 0 -91 -80.5t-131 -171.5t-61 -118z" />
<glyph unicode="5" d="M125 20q0 31 15 50.5t38 21.5q12 0 39 -10q87 -43 176 -43q81 0 129.5 40.5t48.5 108.5q0 156 -237 156q-25 0 -43 -2h-39q-41 0 -59.5 14t-18.5 45q0 68 92 373q51 168 72 227t37 78q17 19 47.5 23.5t191.5 15.5q239 18 315.5 27.5t119.5 25.5q15 5 18 5q11 0 19 -11 t8 -26q0 -54 -18 -130t-38 -112q-22 -37 -65 -53t-142 -25q-248 -16 -303 -16q-26 0 -37 -4.5t-20 -18.5q-20 -30 -20 -67q0 -31 24.5 -40t114.5 -9q104 -1 152.5 -11t101.5 -39q190 -103 190 -313q0 -126 -75 -235t-202 -173.5t-274 -64.5q-88 0 -174.5 25.5t-140.5 66.5 q-43 32 -43 100z" />
<glyph unicode="6" d="M133 508q0 129 52.5 274t144 272.5t202.5 207.5q76 54 121 57q34 3 127 -41q49 -21 49 -45q0 -12 -22 -37q-105 -110 -166 -225q-47 -84 -47 -105q0 -12 6 -22t14 -10q9 0 23 12q69 53 182 53q138 0 222.5 -95t84.5 -251q0 -118 -43.5 -223t-117.5 -180.5t-178 -119.5 t-220 -44q-198 0 -316 141.5t-118 380.5zM530 356q0 -85 18.5 -132.5t51.5 -47.5q43 0 82 74q59 118 59 262q0 77 -18.5 119.5t-52.5 42.5t-67 -45.5t-53 -120t-20 -152.5z" />
<glyph unicode="7" d="M158 784q0 78 33.5 174.5t87.5 176.5q48 67 100 67q16 0 24 -3t41 -21q28 -17 101 -17q32 0 55 2h66q21 0 108 -2t107 -2q38 0 125.5 5t121.5 5q51 0 80 -20t29 -55q0 -39 -57 -162l-516 -1129q-13 -29 -31 -40t-49 -11q-36 0 -108.5 24.5t-137 65t-64.5 76.5 q0 18 6.5 32.5t49.5 88.5l336 579q47 80 57 103t10 43q0 55 -131 55q-166 0 -201 -18q-13 -8 -19.5 -18t-31.5 -66q-13 -30 -33.5 -42.5t-54.5 -12.5q-47 0 -75.5 33.5t-28.5 88.5z" />
<glyph unicode="8" d="M104 395q0 165 129 273q35 28 35 41q0 4 -26 53q-33 68 -33 133q0 104 66.5 192.5t179.5 140.5t245 52q181 0 300.5 -95.5t119.5 -240.5q0 -112 -78 -196q-34 -34 -34 -43q0 -7 24 -35q103 -109 103 -246q0 -64 -27 -136.5t-68 -119.5q-74 -85 -192.5 -133.5 t-251.5 -48.5q-212 0 -352 116t-140 293zM438 391q0 -88 63 -150.5t152 -62.5q51 0 85 29t34 72q0 37 -29.5 64.5t-101.5 59.5q-99 45 -119 62q-38 22 -47 22q-14 0 -25.5 -29t-11.5 -67zM543 987q0 -54 90 -104q106 -62 129 -62q12 0 20.5 21t8.5 53q0 79 -41 132.5 t-101 53.5q-43 0 -74.5 -28t-31.5 -66z" />
<glyph unicode="9" d="M94 567q0 162 87.5 302.5t236 223.5t319.5 83q199 0 316.5 -125.5t117.5 -339.5q0 -390 -301 -764q-83 -103 -127.5 -139.5t-87.5 -36.5q-45 0 -109.5 37t-64.5 63q0 11 25 43q73 85 121.5 163.5t48.5 110.5q0 11 -7 19t-16 8q-6 0 -20 -8q-38 -22 -97.5 -35.5 t-113.5 -13.5q-145 0 -236.5 114t-91.5 295zM522 559q0 -75 18 -115.5t50 -40.5q38 0 75 53.5t60 139t23 172.5q0 89 -21 138.5t-59 49.5q-50 0 -90 -90q-25 -58 -40.5 -144.5t-15.5 -162.5z" />
<glyph unicode=":" horiz-adv-x="626" d="M82 180q0 94 67 158.5t164 64.5t154 -55t57 -147q0 -100 -66 -164t-167 -64q-92 0 -150.5 58t-58.5 149zM164 784q0 94 67 159t164 65t154 -55.5t57 -147.5q0 -101 -65.5 -165.5t-167.5 -64.5q-92 0 -150.5 58.5t-58.5 150.5z" />
<glyph unicode=";" horiz-adv-x="626" d="M84 205q0 97 55 153t152 56q110 0 171.5 -71t61.5 -200q0 -150 -116 -329q-50 -77 -104.5 -128t-88.5 -51q-29 0 -64.5 35t-35.5 62q0 18 35 61q37 44 60 90.5t23 75.5q0 18 -8 29t-32 24q-57 34 -83 80t-26 113zM152 784q0 94 67.5 159t165.5 65q97 0 154 -55.5 t57 -147.5q0 -101 -66.5 -165.5t-169.5 -64.5q-92 0 -150 58.5t-58 150.5z" />
<glyph unicode="&#x3c;" horiz-adv-x="1024" d="M68 539v309l886 487v-370l-493 -273l491 -274l2 -367z" />
<glyph unicode="=" d="M125 324q0 16 21 77t36 91q25 45 68 45q19 0 29 -2q115 -11 163 -11h506q80 0 94 2q24 4 27 4q15 2 27 -9.5t12 -28.5q0 -24 -17 -80t-34 -88q-26 -48 -58 -48q-3 0 -67 9q-34 6 -92 6h-449q-65 0 -129.5 -3t-89.5 -3q-20 0 -33.5 12t-13.5 27zM125 680q0 16 21 77t36 91 q25 45 68 45q19 0 29 -2q105 -10 163 -10h506q80 0 94 2q24 4 27 4q15 2 27 -10t12 -29q0 -24 -17 -80t-34 -88q-26 -47 -58 -47q-6 0 -68.5 7t-90.5 7h-449q-65 0 -129.5 -3t-89.5 -3q-20 0 -33.5 12t-13.5 27z" />
<glyph unicode="&#x3e;" horiz-adv-x="1024" d="M68 51v371l493 272l-491 273l-2 368l886 -487v-311z" />
<glyph unicode="?" horiz-adv-x="921" d="M109 987q0 101 82 195.5t216.5 152.5t278.5 58q149 0 240.5 -74.5t91.5 -196.5q0 -134 -96 -221q-37 -34 -91.5 -68.5t-105.5 -56.5q-90 -40 -112.5 -58.5t-22.5 -53.5q0 -12 10 -41q6 -12 6 -23q0 -34 -52 -60t-122 -26q-51 0 -82 29t-31 75q0 52 22.5 101.5t78.5 120.5 q121 157 121 231q0 25 -13.5 41t-35.5 16q-43 0 -70 -30q-12 -15 -18 -28t-31 -81q-47 -117 -150 -117q-54 0 -84 31t-30 84zM203 180q0 94 67 158.5t164 64.5t154 -55t57 -147q0 -100 -66 -164t-167 -64q-92 0 -150.5 58t-58.5 149z" />
<glyph unicode="@" horiz-adv-x="1546" d="M51 326q0 177 77 351t210 298q254 239 637 239q275 0 440 -151q78 -74 124 -180t46 -215q0 -134 -62 -254t-169 -193q-71 -47 -158.5 -75.5t-163.5 -28.5q-92 0 -135 49q-17 23 -27 67q-6 19 -18 19q-14 0 -39 -25q-105 -102 -209 -102q-91 0 -147 63t-56 166 q0 129 61 252.5t159 200t200 76.5q64 0 133 -43q30 -15 37 -15q5 0 31 11q57 28 89.5 37.5t68.5 9.5q69 0 69 -60q0 -31 -14 -92q-72 -272 -72 -354q0 -17 10 -27t25 -10q48 0 109 61q51 49 79.5 123.5t28.5 153.5q0 177 -122.5 280t-329.5 103q-308 0 -512 -201 q-103 -103 -165.5 -248.5t-62.5 -287.5q0 -180 117.5 -278.5t331.5 -98.5q209 0 389 86q48 22 78 22q28 0 46.5 -16t18.5 -41q0 -44 -65 -88q-174 -115 -455 -115q-299 0 -466 140t-167 391zM741 408q0 -22 7.5 -35t19.5 -13q26 0 64.5 56t67 131t28.5 125q0 36 -23 39 q-12 1 -34.5 -19.5t-45.5 -50.5q-35 -50 -59.5 -117t-24.5 -116z" />
<glyph unicode="A" horiz-adv-x="1509" d="M-41 113q0 40 16.5 61t57.5 31q33 7 61.5 32.5t68.5 84t113 180.5q176 294 252 453t99 280q16 85 59 119q59 43 172 43q89 0 149 -35t107 -115q70 -113 160 -516l80 -354q26 -114 39 -133q7 -14 16 -17l49 -20q51 -19 51 -82q0 -78 -92 -109.5t-321 -31.5 q-109 0 -159 5.5t-85 22.5q-26 12 -41.5 35.5t-15.5 50.5q0 49 41 76l51 23q19 7 26 19.5t7 37.5q0 30 -15.5 43t-57.5 17.5t-140 4.5q-204 0 -228 -18q-24 -21 -24 -63q0 -18 7 -25.5t30 -13.5q73 -20 73 -84q0 -32 -19 -59.5t-48 -39.5q-85 -32 -297 -32q-132 0 -187 29.5 t-55 99.5zM606 584q0 -22 21.5 -27.5t103.5 -5.5q87 0 107 7.5t20 41.5q0 51 -51 209q-19 61 -47 61q-30 0 -92 -127.5t-62 -158.5z" />
<glyph unicode="B" horiz-adv-x="1370" d="M27 117q0 74 88 92q38 7 50.5 39.5t50.5 216.5q1 4 1 6q27 133 46.5 305.5t19.5 282.5q0 49 -10.5 65.5t-49.5 28.5q-71 20 -71 84q0 60 50.5 94.5t139.5 34.5q67 0 141 -4q11 0 35 -1t37 -1q3 0 156.5 5t199.5 5q122 0 201 -22.5t131 -73.5q44 -41 68 -98.5t24 -122.5 q0 -83 -40.5 -150.5t-131.5 -136.5q-16 -13 -16 -29q0 -18 57 -45q75 -35 115.5 -107.5t40.5 -172.5q0 -186 -135 -301t-353 -115q-34 0 -138.5 4t-141.5 4q-46 0 -188 -4t-168 -4q-107 0 -152 22q-25 13 -41 41.5t-16 57.5zM645 238q0 -43 62 -43q75 0 114 64t39 190 q0 89 -29 123t-106 34q-38 0 -46.5 -6t-10.5 -31q0 -15 -6 -82l-9 -122l-6 -99q-2 -10 -2 -28zM690 852q-2 -25 8.5 -35t36.5 -10q68 0 105 65t37 185q0 62 -24.5 90.5t-76.5 28.5q-34 0 -43 -4t-12 -23q-4 -21 -14 -139q-10 -98 -11 -101q-6 -55 -6 -57z" />
<glyph unicode="C" horiz-adv-x="1392" d="M74 532q0 180 98 374.5t250 314.5q99 79 226 125.5t243 46.5q47 0 100 -8.5t90 -22.5q34 -12 45 -12q8 0 42 10t42 10q28 0 64 -23t63 -59q78 -101 78 -225q0 -92 -49 -149.5t-127 -57.5q-74 0 -127 59q-13 13 -72 111q-51 82 -133 82q-71 0 -136.5 -73.5t-105.5 -195 t-40 -253.5q0 -129 58 -207t153 -78q85 0 172 66q16 11 31.5 26.5t119.5 120.5q37 37 90 37q47 0 78 -34.5t31 -88.5q0 -80 -36.5 -159t-96.5 -128q-20 -15 -32 -18t-63 -8q-12 -2 -51 -21q-133 -70 -226.5 -95.5t-217.5 -25.5q-111 0 -212 32.5t-173 92.5 q-91 75 -133.5 180t-42.5 254z" />
<glyph unicode="D" horiz-adv-x="1554" d="M27 100q0 85 79 103q30 6 42 15t24 36q6 14 11.5 27.5t10.5 31t10 40t10 49.5t11 64.5t12.5 80.5t14.5 102q41 279 41 404q0 47 -15 68.5t-57 35.5q-57 18 -57 80q0 59 39 90q25 22 61.5 31t102.5 8l165 -2q4 0 40 2t100.5 4.5t134.5 3.5l143 2q101 1 169 -8t132 -33 q149 -53 229.5 -199t80.5 -366q0 -194 -74.5 -362t-206.5 -271q-96 -74 -215 -107.5t-287 -33.5q-31 0 -141 2t-141 2q-119 0 -236 -6q-74 -4 -92 -4q-141 0 -141 110zM705 313q0 -31 7 -49.5t22.5 -27.5t41.5 -9q161 0 228 219q23 78 39 197.5t16 214.5q0 291 -193 291 q-32 0 -49.5 -6t-29.5 -27t-17.5 -53.5t-9.5 -93.5q-4 -36 -41 -461q-14 -164 -14 -195z" />
<glyph unicode="E" horiz-adv-x="1359" d="M27 98q0 65 79 101q43 19 59 36.5t28 59.5q34 117 72 375t38 368q0 49 -16 78q-6 9 -13 14t-49 33q-43 28 -43 78q0 63 49.5 97t143.5 34q30 0 136 -3t165 -3q49 0 336 2q56 0 76.5 2t66.5 14q28 7 41 7q63 0 113.5 -89.5t50.5 -199.5q0 -69 -33.5 -111.5t-87.5 -42.5 q-41 0 -65.5 21.5t-65.5 93.5q-26 46 -63 63t-109 17q-78 0 -114 -14t-48 -48q-9 -25 -20 -114t-11 -136q0 -14 7.5 -20t27.5 -6q46 0 62.5 17t36.5 85q21 78 88 78q60 0 93.5 -61.5t33.5 -173.5q0 -156 -49.5 -259.5t-124.5 -103.5q-20 0 -38 8.5t-26 20.5q-12 18 -14.5 32 t-8.5 89q-3 49 -63 49q-34 0 -45.5 -22t-11.5 -85q0 -2 -1 -17t-2 -40.5t-1 -52.5v-31q0 -73 12.5 -93t58.5 -20q151 0 213 27q36 17 54 38.5t88 127.5q35 57 100 57q54 0 83.5 -39t29.5 -110q0 -132 -76 -242q-70 -98 -133 -98q-7 0 -50 8q-37 6 -88 6h-344 q-178 0 -424 -16q-18 -2 -55 -2q-71 0 -110 30.5t-39 85.5z" />
<glyph unicode="F" horiz-adv-x="1273" d="M27 117q0 41 17 59.5t73 38.5q27 9 38 27.5t31 81.5q33 110 69 357t36 366q0 42 -17 73q-6 10 -13 14.5t-46 22.5q-55 23 -55 88q0 62 52 95.5t148 33.5q45 0 161.5 -3t180.5 -3q9 0 26.5 0.5t79 1.5t167.5 2q99 2 149 12q35 7 45 7q69 0 128 -93t59 -202q0 -72 -36 -115 t-97 -43q-52 0 -78 33q-8 8 -51 84q-25 43 -58 61.5t-88 18.5q-102 0 -155 -17q-18 -7 -26 -30.5t-19 -98.5l-17 -102q-6 -37 -6 -66q0 -26 43 -26q34 0 52.5 15t27.5 50q19 65 42 91t64 26q57 0 91 -57t34 -152q0 -186 -46 -291.5t-128 -105.5q-47 0 -64.5 29t-23.5 116 q-6 64 -55 64q-40 0 -55 -45q-6 -21 -12.5 -104t-6.5 -146q0 -37 13 -55.5t47 -30.5q43 -15 59 -30.5t16 -43.5q0 -75 -95 -110t-298 -35q-213 0 -308 32.5t-95 104.5z" />
<glyph unicode="G" horiz-adv-x="1501" d="M76 528q0 99 22 195t63.5 181t98.5 160.5t129 135.5t153 103.5t173 66.5t186 23q76 0 166 -33q46 -17 59 -17l36.5 8.5t49.5 8.5q79 0 145 -96.5t66 -212.5q0 -89 -53 -147t-135 -58q-46 0 -80 25t-63 81q-36 68 -50 89.5t-30 35.5q-36 33 -86 33q-74 0 -135 -54.5 t-97.5 -138.5t-56 -178t-19.5 -182q0 -132 53.5 -211.5t141.5 -79.5q57 0 91 36.5t34 98.5q0 34 -10.5 46t-50.5 22q-37 9 -57.5 33t-20.5 59q0 47 30 74q88 76 377 76q344 0 344 -150q0 -41 -20 -62t-74 -34q-27 -7 -37.5 -17.5t-19.5 -37.5l-27 -72 q-59 -156 -252.5 -260.5t-431.5 -104.5q-286 0 -449 148t-163 407z" />
<glyph unicode="H" horiz-adv-x="1556" d="M27 106q0 58 53 84q49 26 60 38t22 51q35 123 67.5 374.5t32.5 401.5q0 47 -9.5 63.5t-47.5 36.5q-30 15 -41.5 33t-11.5 49q0 41 22 63q37 38 147 60t267 22q146 0 209 -27.5t63 -90.5q0 -32 -13.5 -52.5t-45.5 -37.5q-35 -19 -48.5 -38.5t-19.5 -60.5 q-31 -178 -31 -213q0 -26 32.5 -34.5t135.5 -8.5q77 0 104 9.5t34 41.5q5 22 11.5 105t6.5 119q0 32 -8 46t-39 36q-39 27 -39 69q0 40 17.5 65t58.5 40q37 14 127.5 23t187.5 9q168 0 238.5 -25t70.5 -85q0 -54 -34 -78q-7 -5 -62 -29q-20 -8 -32.5 -40.5t-22.5 -108.5 q-53 -351 -66 -506q-16 -169 -16 -217q0 -34 8 -55q3 -12 10.5 -18t42.5 -25q43 -22 43 -76q0 -72 -86.5 -103.5t-285.5 -31.5q-191 0 -264.5 26t-73.5 94q0 64 63 86q31 12 43 27.5t19 54.5q27 153 32 186t5 66q0 30 -26.5 40.5t-102.5 10.5q-91 0 -123 -7.5t-41 -32.5 q-8 -26 -18.5 -128t-10.5 -159q0 -25 7 -35t34 -25q43 -24 43 -73q0 -69 -92 -100t-301 -31q-159 0 -232 29t-73 93z" />
<glyph unicode="I" horiz-adv-x="899" d="M27 127q0 55 41 76q12 5 77 22q56 14 84 183q84 492 84 690q0 37 -11 49.5t-52 21.5q-74 16 -74 86q0 68 88 97.5t289 29.5q244 0 336 -25.5t92 -94.5q0 -57 -45 -80q-13 -8 -76 -23q-28 -8 -42 -41.5t-27 -126.5q-95 -632 -95 -680q0 -46 25 -78q4 -6 70 -36 q45 -20 45 -74q0 -72 -85 -105.5t-268 -33.5q-179 0 -275.5 13t-138.5 43t-42 87z" />
<glyph unicode="J" horiz-adv-x="1200" d="M-27 295q0 101 79.5 172.5t191.5 71.5q78 0 133 -51t55 -123q0 -39 -16 -82q-15 -35 -15 -52q0 -15 16 -28t36 -13q54 0 95.5 83t63.5 235q41 273 41 588q0 26 -8 37.5t-27 11.5l-61 -2q-27 -1 -45 21.5t-18 58.5q0 53 32 82q86 77 430 77q183 0 261.5 -31.5t78.5 -103.5 q0 -48 -28 -67q-14 -10 -82 -25q-38 -12 -43 -65l-8 -68q-25 -211 -50 -444q-19 -174 -48 -258.5t-95 -147.5q-95 -92 -240.5 -145.5t-302.5 -53.5q-187 0 -306.5 90.5t-119.5 231.5z" />
<glyph unicode="K" horiz-adv-x="1507" d="M27 113q0 32 13 49t56 39q36 19 52.5 57.5t41.5 157.5q27 138 53.5 350.5t26.5 294.5q0 42 -10 57.5t-53 38.5q-47 26 -47 76q0 66 65 102q38 20 121.5 33.5t171.5 13.5q93 0 177 -13.5t116 -33.5q35 -20 35 -71q0 -34 -15 -54t-49 -34q-35 -13 -47 -27.5t-20 -48.5 q-25 -129 -25 -180q0 -23 9 -40.5t20 -17.5q17 0 80 60l59 55q65 61 108.5 112t43.5 68q0 6 -17 37q-22 31 -22 63q0 60 79.5 87.5t256.5 27.5q136 0 196 -28t60 -93q0 -88 -101 -94q-47 -3 -65 -11t-78 -54q-266 -203 -266 -254q0 -15 47 -103l196 -366q55 -101 76 -127 t80 -66q49 -33 49 -76q0 -67 -69 -90.5t-265 -23.5q-47 0 -74 1.5t-54 10.5t-42 20t-35 38t-35 57t-40 84q-26 55 -88 171.5t-80 143.5q-20 33 -41 33q-26 0 -35.5 -45t-9.5 -174q0 -64 8.5 -81.5t58.5 -56.5q33 -23 33 -59q0 -75 -93.5 -109t-297.5 -34q-167 0 -241 30 t-74 97z" />
<glyph unicode="L" horiz-adv-x="1280" d="M27 106q0 70 65 99q43 20 56 32.5t28 47.5q42 107 70 307q20 136 35.5 281.5t15.5 199.5q0 40 -11.5 53t-80.5 48q-47 24 -47 77q0 42 26 66.5t84 34.5q177 30 398 30q159 0 223.5 -26t64.5 -90q0 -46 -22 -68q-15 -15 -29 -20.5t-82 -26.5q-46 -11 -67 -162 q-56 -421 -56 -665q0 -58 29 -70q43 -18 141 -18t154 47q16 14 29 32t61 91q25 38 49 53.5t58 15.5q54 0 83 -35.5t29 -99.5q0 -131 -65 -247t-138 -116q-15 0 -61 11q-43 11 -69.5 13.5t-90.5 2.5h-245q-242 0 -326 -4q-34 -1 -95.5 -3.5t-82.5 -2.5q-60 0 -95.5 30 t-35.5 82z" />
<glyph unicode="M" horiz-adv-x="1798" d="M0 109q0 34 20.5 55.5t67.5 38.5l21 7t16 11t13.5 16t14 31t18 46t24.5 71q58 166 102.5 360t44.5 285q0 50 -19.5 75t-70.5 38q-38 10 -55 30t-17 54q0 59 68 94q45 23 155.5 41t204.5 18q80 0 129.5 -27t75.5 -87q8 -17 55.5 -149.5t61.5 -174.5q21 -68 34.5 -93.5 t30.5 -25.5q15 0 30.5 13t47 60.5t74 121.5t119.5 215q43 78 119.5 112.5t205.5 34.5q130 0 202.5 -35.5t72.5 -99.5q0 -35 -15 -55t-49 -31q-66 -23 -86.5 -63t-29.5 -162q-37 -465 -37 -606q0 -50 10 -73.5t39 -43.5q34 -24 46.5 -41t12.5 -41q0 -71 -104.5 -103 t-335.5 -32q-150 0 -215.5 27t-65.5 88q0 62 68 88q43 17 55 32q16 21 34 118q2 12 9 50q27 162 27 226q0 36 -21 36q-10 0 -19.5 -11t-39.5 -56q-10 -14 -82 -131l-117 -182q-43 -66 -77 -95.5t-68 -29.5q-30 0 -42 13q-23 23 -75 177q-17 50 -61 186q-40 119 -58 119 q-12 0 -19 -15t-22 -75q-17 -71 -34 -172t-17 -131q0 -26 9 -40t44 -42q41 -33 41 -68q0 -22 -12.5 -42.5t-32.5 -30.5q-35 -20 -107 -33.5t-147 -13.5q-132 0 -202 31.5t-70 91.5z" />
<glyph unicode="N" horiz-adv-x="1585" d="M0 109q0 57 68 79q51 15 65.5 31t34.5 78q42 131 82.5 386t40.5 388q0 42 -23 62q-6 7 -16.5 11t-67.5 19q-49 11 -49 76q0 83 78 111q82 32 317 32q64 0 97 -5t69.5 -30.5t65.5 -64.5t82 -121q168 -260 241.5 -362.5t90.5 -102.5q21 0 35 39.5t19 103t7 108.5t2 89 q0 66 -15.5 91t-62.5 32q-46 7 -64 25.5t-18 56.5q0 72 76 100.5t268 28.5q150 0 217.5 -29.5t67.5 -95.5q0 -40 -22 -60.5t-74 -27.5q-48 -6 -68 -31t-33 -108l-16 -98q-10 -60 -22.5 -145t-32 -220t-33.5 -231q-28 -187 -77 -262.5t-144 -75.5q-65 0 -107.5 30t-105.5 119 q-4 6 -39.5 59t-115.5 173.5t-169 253.5q-73 110 -100 110q-39 0 -53 -119q-33 -275 -33 -327q0 -45 16 -64t90 -63q33 -20 33 -62q0 -110 -264 -110q-164 0 -251 31.5t-87 91.5z" />
<glyph unicode="O" horiz-adv-x="1464" d="M70 514q0 175 71 345.5t197 293.5q243 240 594 240q269 0 421 -150.5t152 -415.5q0 -142 -59 -301t-154 -276q-110 -135 -271 -206t-359 -71q-281 0 -436.5 142t-155.5 399zM604 446q0 -117 27 -173t84 -56q58 0 107 50.5t83 144.5q34 89 56 223.5t22 245.5 q0 132 -27.5 191.5t-89.5 62.5q-46 3 -89 -33t-72 -101q-42 -91 -71.5 -254t-29.5 -301z" />
<glyph unicode="P" horiz-adv-x="1300" d="M27 113q0 24 6 39t21 26t44 21q35 14 49.5 30.5t24.5 59.5q61 221 82 444q35 336 35 367q0 32 -13 47t-43 18q-81 9 -81 84q0 60 53.5 94.5t148.5 34.5q6 0 24.5 -1t31.5 -1q161 -8 217 -8q39 0 165.5 5t161.5 5q227 0 335 -90t108 -280q0 -186 -127.5 -325.5 t-329.5 -174.5q-77 -12 -188 -12h-25q-37 0 -47 -17t-8 -76q0 -11 -2 -57.5t-2 -60.5q0 -42 16 -64q6 -7 14 -10.5t52 -15.5q21 -6 34 -26.5t13 -47.5q0 -23 -11 -45.5t-28 -34.5q-40 -29 -138.5 -42t-281.5 -13q-161 0 -236 30.5t-75 96.5zM700 729q0 -15 7 -22t24 -7 q81 0 127 76q24 38 43 121t19 150q0 72 -28 104.5t-89 32.5q-25 0 -32 -12q-9 -15 -28 -128q-43 -260 -43 -315z" />
<glyph unicode="Q" horiz-adv-x="1503" d="M88 524q0 169 72.5 339t195.5 290q243 240 592 240q266 0 421 -146.5t155 -398.5q0 -229 -102 -432t-267 -303q-68 -41 -68 -56q0 -23 55.5 -45t112.5 -22q33 0 49.5 5t77.5 32q23 10 43 10q29 0 54.5 -33.5t25.5 -71.5q0 -117 -121 -199.5t-290 -82.5q-150 0 -277 65 q-49 26 -73.5 42t-140.5 100q-12 8 -18.5 13t-18 13t-21.5 15q-117 86 -191 86q-24 0 -80 -21q-61 -24 -90 -24q-40 0 -65 31.5t-25 80.5q0 37 14.5 60.5t55.5 54.5q12 9 12 22q0 10 -14 31q-34 51 -54 133.5t-20 171.5zM623 453q0 -121 27 -177.5t85 -56.5q127 0 199 221 q30 90 50 217t20 226q0 254 -117 254q-100 0 -162 -133q-41 -88 -71.5 -251.5t-30.5 -299.5z" />
<glyph unicode="R" horiz-adv-x="1509" d="M27 119q0 60 57 78q50 15 65 33t35 87q37 123 68 363t31 401q0 26 -6 41t-19 23t-37 12q-37 7 -54 25t-17 49q0 133 200 133q29 0 126 -2t128 -2q46 0 203 4t205 4q162 0 258 -57q145 -88 145 -271q0 -86 -41.5 -157t-118.5 -115q-25 -15 -34 -25t-9 -22q0 -14 9.5 -23.5 t62.5 -48.5q39 -28 56 -78.5t24 -162.5q6 -95 13 -134.5t19 -56t40 -27.5q45 -18 59 -30.5t14 -36.5q0 -60 -80 -99.5t-200 -39.5q-178 0 -260 94q-59 65 -80 233q-18 154 -27.5 194t-30.5 58q-30 27 -86 27q-31 0 -41.5 -9t-13.5 -38q-18 -176 -18 -267q0 -36 9 -52t38 -29 q38 -20 50.5 -35.5t12.5 -40.5q0 -71 -94 -103t-301 -32q-185 0 -272.5 33t-87.5 102zM723 829q0 -20 11.5 -29t37.5 -9q42 0 72.5 30.5t46.5 88.5t16 137q0 67 -25 98t-79 31q-38 0 -47 -39q-4 -18 -18.5 -152.5t-14.5 -155.5z" />
<glyph unicode="S" horiz-adv-x="1253" d="M41 383q0 84 40.5 134t108.5 50q58 0 90 -33t72 -135q70 -186 201 -186q54 0 90.5 31.5t36.5 77.5q0 43 -36.5 84t-141.5 114q-86 61 -131 100.5t-74 79.5q-80 112 -80 248q0 104 48 194.5t134 147.5q74 48 165.5 75.5t178.5 27.5q85 0 150 -21q38 -10 45 -10 q9 0 57 16.5t62 16.5q54 0 105 -50t79.5 -114t28.5 -113q0 -70 -44.5 -119t-109.5 -49q-72 0 -145 84q-62 71 -95.5 94t-76.5 23q-39 0 -63.5 -23.5t-24.5 -60.5q0 -40 27.5 -72t92.5 -67q203 -109 275 -176q63 -60 91 -128t28 -163q0 -140 -83.5 -252t-231 -175t-330.5 -63 q-241 0 -390 113.5t-149 298.5z" />
<glyph unicode="T" horiz-adv-x="1316" d="M96 1036q0 72 39 154.5t101 142.5q54 51 114 51q17 0 76 -14q16 -4 86 -4h393q21 0 59.5 1t55.5 1q87 2 111 4t71 14q5 1 13 2t13 2t9 1q69 0 129.5 -99t60.5 -213q0 -82 -44 -133t-115 -51q-65 0 -101 51q-12 18 -47 115q-27 76 -67 76q-37 0 -52 -54 q-15 -59 -46 -363.5t-31 -400.5q0 -48 12 -69.5t47 -36.5q60 -26 75 -41t15 -49q0 -35 -20 -55q-44 -40 -165 -62t-292 -22q-354 0 -354 131q0 53 43 75q10 5 75 27q39 14 56.5 58.5t40.5 189.5q19 112 45 336.5t26 265.5q0 61 -49 61q-38 0 -67 -67q-44 -94 -72 -129 q-44 -47 -107 -47q-61 0 -99 41.5t-38 109.5z" />
<glyph unicode="U" horiz-adv-x="1548" d="M135 1221q0 44 23 75q34 37 156 61.5t276 24.5q184 0 262 -43q49 -25 49 -92q0 -69 -61 -90q-50 -19 -63.5 -30t-24.5 -42q-22 -70 -53 -310.5t-31 -344.5q0 -92 44 -136t136 -44q71 0 130 28.5t91 77.5q67 105 102 424q21 191 21 256q0 52 -23 82q-7 10 -16.5 14.5 t-50.5 18.5q-66 21 -66 88q0 69 72 98t242 29q162 0 235.5 -29t73.5 -92q0 -75 -68 -90q-49 -12 -64.5 -25.5t-27.5 -56.5q-11 -16 -29 -141q-18 -123 -45 -295q-28 -182 -64 -291.5t-93 -181.5q-72 -92 -200 -141.5t-294 -49.5q-155 0 -282 38.5t-205 109.5 q-101 91 -101 254q0 78 35 321q41 296 41 373q0 41 -20 61q-11 9 -72 27q-15 5 -25 22.5t-10 41.5z" />
<glyph unicode="V" horiz-adv-x="1447" d="M123 1225q0 52 31 80q93 77 417 77q154 0 222.5 -29.5t68.5 -95.5q0 -65 -55 -88q-41 -19 -52.5 -31.5t-11.5 -39.5q0 -30 36 -181.5t63 -236.5q13 -44 23 -61t22 -17t21.5 15t45.5 88q54 108 102 239.5t48 169.5q0 23 -10.5 37t-55.5 55q-22 16 -22 54q0 64 72 93 t229 29q136 0 195 -26.5t59 -87.5q0 -56 -41 -80q-12 -6 -70 -25q-20 -6 -38 -29.5t-46 -80.5q-31 -64 -105 -217.5t-114 -237.5q-155 -329 -258 -494q-40 -66 -84.5 -94t-107.5 -28q-41 0 -67 10t-50.5 33.5t-46.5 78.5t-45 128.5t-56 199.5q-18 70 -35.5 134.5 t-30.5 113.5t-16 59q-35 121 -67 244q-22 84 -40 108.5t-75 49.5q-30 13 -42.5 32t-12.5 52z" />
<glyph unicode="W" horiz-adv-x="2201" d="M123 1227q0 33 14 56t44.5 39t82.5 28q142 34 320 34q124 0 181.5 -29.5t57.5 -94.5q0 -51 -45 -84q-35 -24 -45 -42.5t-10 -52.5q0 -58 26.5 -183t55.5 -202q7 -21 19.5 -36t21.5 -15q21 0 51 47q65 100 103 191.5t38 146.5q0 73 -84 133q-29 20 -39 36t-10 42 q0 16 4.5 31t13 27.5t19.5 19.5q28 20 81.5 34.5t126 21.5t159.5 7q155 0 225 -27t70 -87q0 -37 -20 -62t-64 -45q-16 -7 -24 -14.5t-11.5 -19t-3.5 -31.5q0 -67 31 -195.5t67 -212.5q25 -57 47 -57q10 0 23.5 16t38.5 58q52 94 106.5 234t54.5 181q0 14 -4 25t-12.5 21 t-24.5 22q-25 17 -34 33t-9 41q0 64 74 91t248 27q237 0 237 -110q0 -61 -63 -86q-34 -13 -50 -20.5t-33.5 -24.5t-29.5 -36t-37 -61l-61 -118q-77 -146 -199 -402q-65 -135 -139.5 -264.5t-124.5 -196.5q-61 -79 -139 -79q-66 0 -106 51.5t-74 179.5q-33 121 -53.5 191.5 t-37.5 118t-28.5 64.5t-22.5 17q-16 0 -32 -23q-28 -39 -216 -393l-1 -1v-1l-1 -1v-1l-1 -1v-1l-1 -1l-1 -1v-1l-1 -1v-1l-1 -1v-1l-1 -1v-1l-1 -1v-1l-1 -1q-53 -97 -103 -140.5t-110 -43.5q-63 0 -99.5 51t-68.5 184q-139 582 -208 821q-17 57 -29.5 70t-59.5 27 q-67 18 -67 88z" />
<glyph unicode="X" horiz-adv-x="1396" d="M-2 92q0 44 31 68q14 11 86 41q42 19 86 57.5t108 112.5l131 155q67 78 84 100.5t17 35.5q0 10 -49 107t-101 189q-66 116 -77 134.5t-23 31.5q-11 10 -21.5 15t-64.5 22q-28 9 -45 31.5t-17 50.5q0 75 107 105q45 13 175.5 24.5t233.5 11.5q100 0 154.5 -27.5 t54.5 -78.5q0 -26 -13 -46.5t-50 -51.5q-27 -24 -27 -43q0 -18 27.5 -77t46.5 -59q22 0 70.5 67.5t48.5 96.5q0 1 -10.5 43t-10.5 58q0 63 66.5 88.5t232.5 25.5q215 0 215 -112q0 -40 -22 -62q-17 -17 -31.5 -22t-85.5 -17q-55 -9 -102.5 -56.5t-171.5 -215.5 q-63 -88 -75.5 -107.5t-12.5 -29.5q0 -20 135 -262q102 -180 147 -240q18 -24 28.5 -31t57.5 -28q53 -21 53 -78q0 -52 -49 -84q-34 -23 -137.5 -37t-243.5 -14q-154 0 -222 27.5t-68 90.5q0 30 12 46t51 36q33 17 33 41q0 27 -51 140q-32 65 -56 65q-22 0 -57 -51 q-96 -138 -96 -162q0 -13 32 -59q23 -30 23 -64q0 -110 -287 -110q-139 0 -204.5 26t-65.5 82z" />
<glyph unicode="Y" horiz-adv-x="1372" d="M109 1243q0 70 79 100q88 37 412 37q132 0 191 -25.5t59 -82.5q0 -35 -12 -52.5t-62 -52.5q-14 -11 -14 -30q0 -39 41 -116t63 -77q12 0 26 14t48 64q57 82 66.5 97t9.5 26q0 15 -23 41q-31 34 -37 45.5t-6 34.5q0 114 289 114q134 0 195 -24t61 -78q0 -38 -22.5 -61 t-71.5 -35q-51 -12 -69 -25t-70 -74q-179 -215 -234 -288.5t-67 -116.5q-10 -34 -20.5 -165t-10.5 -228q0 -53 10 -68t51 -24q78 -18 78 -76q0 -69 -91 -100t-294 -31q-216 0 -302.5 25.5t-86.5 88.5q0 37 24.5 61.5t71.5 31.5q31 5 46.5 19.5t26.5 50.5t21 114l23 178 q10 49 10 74q0 53 -29 110.5t-174 290.5q-52 83 -69 99.5t-70 35.5q-67 23 -67 78z" />
<glyph unicode="Z" horiz-adv-x="1247" d="M51 80q0 52 64 147q34 52 354 537q115 175 150.5 235.5t35.5 83.5q0 22 -23 33.5t-65 11.5q-65 0 -102 -9.5t-59.5 -32.5t-40.5 -68q-28 -67 -56 -92t-76 -25q-114 0 -114 139q0 78 34 159.5t87 134t104 52.5q17 0 72 -16q8 -2 35 -2h38q15 0 196 1t307.5 1.5t174.5 -0.5 q49 -4 79 -28.5t30 -59.5q0 -8 -1 -14.5t-2.5 -13.5t-6 -17.5t-9.5 -20.5t-15 -27l-20 -34t-27 -45.5t-33.5 -56t-43 -71t-51.5 -85.5l-281 -469q-38 -64 -50.5 -91t-12.5 -44q0 -19 30 -30t81 -11q75 0 131 29q31 16 57 81q22 56 46.5 79.5t61.5 23.5q51 0 83 -38t32 -97 q0 -31 -8.5 -74.5t-25.5 -91t-39.5 -88.5t-54 -67.5t-64.5 -26.5q-9 0 -37 4q-42 10 -63 13.5t-40.5 5t-52.5 1.5q-3 0 -148.5 -2t-313 -4t-224.5 -2q-55 0 -89 22.5t-34 59.5z" />
<glyph unicode="[" horiz-adv-x="1103" d="M272 -188q0 75 7 133l118 1128q13 129 36 195.5t61 91.5q47 33 268 33q264 0 317 -29q45 -23 45 -72q0 -35 -29.5 -56.5t-78.5 -21.5q-11 0 -60.5 3.5t-68.5 3.5q-31 0 -47.5 -3.5t-30.5 -11t-21 -27.5t-12 -45.5t-10 -72.5l-119 -1116q-4 -50 -4 -72q0 -39 24.5 -54.5 t86.5 -15.5q32 0 77 7l50 2q37 1 60.5 -16t23.5 -44q0 -29 -20.5 -56t-49.5 -38q-71 -27 -311 -27q-189 0 -244 19q-68 20 -68 162z" />
<glyph unicode="\" horiz-adv-x="815" d="M-53 1315q0 37 44.5 58.5t119.5 21.5q44 0 64.5 -18t39.5 -74q8 -24 47 -115q11 -25 21 -51t16 -40.5t8 -19.5q57 -141 126 -300.5t150 -342.5t130 -297q62 -135 92 -192q78 -151 91 -179.5t13 -50.5q0 -35 -46.5 -59.5t-112.5 -24.5q-57 0 -91 56q-16 29 -59 143 q-26 73 -96 231l-363 824q-72 163 -170 352q-24 50 -24 78z" />
<glyph unicode="]" horiz-adv-x="1103" d="M47 -268q0 35 30 56.5t79 21.5q11 0 61 -3.5t68 -3.5q31 0 48 3t31 11t21 27.5t11.5 45.5t9.5 73l116 1118l2 21q4 36 4 49q0 40 -23.5 55t-86.5 15q-12 0 -60 -3.5t-67 -3.5q-40 0 -63 16t-23 44q0 29 20 55t49 37q71 27 312 27q190 0 245 -19q68 -20 68 -162 q0 -66 -6 -131l-121 -1130q-13 -129 -35 -195.5t-59 -91.5q-47 -33 -268 -33q-265 0 -318 29q-45 23 -45 72z" />
<glyph unicode="^" horiz-adv-x="1024" d="M16 696l291 678h412l289 -678h-326l-168 428l-172 -428h-326z" />
<glyph unicode="_" horiz-adv-x="1024" d="M0 -102h1024v-217h-1024v217z" />
<glyph unicode="`" horiz-adv-x="1024" d="M291 1380q0 40 49 64t131 24q86 0 156.5 -26t70.5 -58q0 -11 -14 -38q-4 -8 -4 -15q0 -15 10 -27.5t62 -64.5q39 -42 39 -74q0 -29 -22 -48t-54 -19q-85 0 -186 45.5t-169.5 112.5t-68.5 124z" />
<glyph unicode="a" horiz-adv-x="1228" d="M57 295q0 124 49.5 252.5t127 226.5t179 160.5t199.5 62.5q73 0 142 -39q67 -40 90 -40q14 0 27.5 6t82.5 41q69 32 133 32q78 0 78 -73q0 -39 -14 -125q-19 -115 -34 -253t-15 -198q0 -43 10 -58t41 -18q23 -1 36 -14t13 -33q0 -78 -137 -157q-146 -84 -258 -84 q-59 0 -87 26.5t-34 87.5q-6 52 -31 52q-9 0 -21 -9t-73 -63q-122 -103 -248 -103q-118 0 -187 86t-69 234zM500 356q-2 -34 11 -54.5t36 -20.5q37 0 90.5 78t93 184.5t39.5 179.5q0 26 -11 41.5t-30 17.5q-17 2 -52.5 -28.5t-64.5 -71.5q-46 -68 -77.5 -159t-34.5 -167z " />
<glyph unicode="b" horiz-adv-x="1167" d="M55 1184q0 49 32.5 78.5t119.5 60.5q78 28 179.5 49t158.5 21q51 0 73.5 -21t22.5 -67q0 -10 -2.5 -38t-3.5 -40l-12 -125l-17 -137q-4 -50 -4 -62q0 -41 25 -41q14 0 41 27q119 119 239 119t190 -92.5t70 -249.5q0 -119 -50.5 -249t-139.5 -235q-80 -95 -217.5 -151 t-294.5 -56q-105 0 -191 32t-129 87q-41 49 -41 133q0 67 43 326q50 300 50 479q0 49 -12 63.5t-52 14.5q-44 2 -61 17.5t-17 56.5zM526 252q0 -70 43 -70q28 0 57 32t46 81q23 62 38 148t15 149q0 110 -57 110q-22 0 -45.5 -28t-38.5 -72q-20 -58 -39 -172.5t-19 -177.5z " />
<glyph unicode="c" horiz-adv-x="1073" d="M61 360q0 127 68.5 261.5t177.5 224.5q200 162 430 162q149 0 239.5 -71.5t90.5 -188.5q0 -100 -67 -170t-162 -70q-59 0 -100.5 35t-41.5 84q0 26 23 90q10 23 10 41q0 12 -11 22.5t-26 10.5q-61 0 -107 -121t-46 -283q0 -160 102 -160q43 0 87 18t144 77q29 16 56 16 q29 0 52.5 -32t23.5 -73q0 -35 -24.5 -66.5t-80.5 -68.5q-191 -123 -422 -123q-201 0 -308.5 99t-107.5 286z" />
<glyph unicode="d" horiz-adv-x="1226" d="M47 285q0 135 51 285.5t131 250.5q72 89 158.5 138t171.5 49q79 0 141 -50q18 -14 29 -14q19 0 36 50t17 104q0 17 -11 29t-26 12q-4 0 -19.5 -2t-20.5 -2q-60 0 -60 61q0 51 44.5 86t148.5 64q62 17 151 32t133 15q41 0 64.5 -23.5t23.5 -66.5q0 -65 -55 -422 q-63 -410 -63 -545q0 -34 11 -45.5t46 -14.5q57 -6 57 -55q0 -41 -33.5 -75.5t-109.5 -73.5q-75 -38 -150.5 -62t-121.5 -24q-50 0 -74 24q-12 14 -17.5 30t-15.5 73q-9 49 -37 49q-11 0 -41 -27q-94 -90 -165 -125t-158 -35q-115 0 -175.5 79.5t-60.5 230.5zM526 289 q51 0 103 83.5t82 185t30 167.5q0 74 -51 74q-63 0 -133 -154q-14 -32 -30.5 -83t-33 -116.5t-10 -111t42.5 -45.5z" />
<glyph unicode="e" horiz-adv-x="1101" d="M61 340q0 91 40 192.5t110 190.5q104 132 266 208.5t334 76.5q136 0 210.5 -61t74.5 -171q0 -87 -45 -168.5t-125 -140.5q-70 -52 -154.5 -84.5t-150.5 -32.5q-9 0 -19 2h-18q-49 0 -49 -41q0 -32 37.5 -59t84.5 -27q49 0 98 17.5t136 68.5q53 29 72 29q32 0 55.5 -27 t23.5 -63q0 -72 -110 -144q-96 -63 -212.5 -97t-232.5 -34q-201 0 -313.5 96.5t-112.5 268.5zM532 569q0 -20 10 -33.5t25 -13.5q43 0 93.5 79.5t50.5 148.5q0 31 -12.5 48t-34.5 17q-34 0 -66.5 -49t-49 -105.5t-16.5 -91.5z" />
<glyph unicode="f" horiz-adv-x="839" d="M82 -231q0 36 35 71q25 24 32.5 36.5t14.5 45.5q102 458 102 631q0 26 -15.5 36.5t-55.5 10.5h-56q-24 0 -33.5 9t-9.5 32v16q2 10 2 27l4 64q3 47 13.5 58t50.5 11h45q37 0 37 23q0 12 -4.5 19.5t-32.5 41.5q-51 67 -51 166q0 140 118 235t291 95q119 0 196 -58t77 -147 q0 -75 -44.5 -123.5t-113.5 -48.5q-51 0 -82 16.5t-115 87.5q-22 19 -43 19q-20 0 -33.5 -16.5t-13.5 -39.5q0 -53 54 -81q12 -9 81 -27q60 -15 105.5 -50.5t62.5 -80.5q9 -23 14.5 -27t26.5 -4h41q29 0 35.5 -9.5t3.5 -33.5l-8 -137q-1 -27 -11 -32t-59 -7q-23 0 -33.5 -13 t-15.5 -44q-25 -143 -51.5 -356t-26.5 -261q0 -72 -5 -106t-18.5 -54.5t-45.5 -39.5q-46 -28 -137 -51t-158 -23q-73 0 -121.5 34t-48.5 85z" />
<glyph unicode="g" horiz-adv-x="1185" d="M53 137q0 52 36 101t89 71q44 18 53 24t9 21q0 11 -8 21t-35 31q-40 31 -62 81t-22 109q0 96 52.5 181t143.5 138q160 91 342 91q52 0 148 -13q35 -6 59 -6q63 0 113 76q22 31 36 41t37 10q41 0 84 -46.5t43 -90.5q0 -38 -26 -80q-15 -23 -15 -29q0 -7 13 -26 q39 -65 39 -137q0 -183 -152 -293.5t-405 -110.5q-72 0 -138 12q-32 4 -34 4q-19 0 -32 -13t-13 -30q0 -34 37.5 -47.5t129.5 -13.5q39 0 135 3t128 3q123 0 191.5 -57t68.5 -160q0 -155 -161 -252.5t-419 -97.5q-201 0 -323.5 60.5t-122.5 158.5q0 28 8.5 45.5t36.5 48.5 q8 8 8 19q0 10 -16 26q-23 20 -39.5 57t-16.5 70zM293 -115q0 -41 57 -66.5t152 -25.5q88 0 143 22.5t55 59.5q0 11 -10 21t-20 10l-152 -6q-2 0 -6.5 0.5l-13.5 1.5t-17 2q-134 8 -149 16q-12 4 -13 4q-10 0 -18 -12t-8 -27zM555 547q0 -41 14 -59.5t45 -18.5 q37 0 60.5 26.5t40.5 86.5q30 118 30 190q0 74 -59 74q-35 0 -57 -22t-39 -76q-14 -42 -24.5 -102.5t-10.5 -98.5z" />
<glyph unicode="h" horiz-adv-x="1282" d="M80 98q0 41 35 207q45 211 79.5 445t34.5 319q0 40 -13 51.5t-62 14.5q-64 3 -64 59q0 67 96 115q66 34 180 59t203 25q119 0 119 -93q0 -49 -16 -131q0 -3 -2.5 -16t-7 -37.5t-7.5 -48.5l-24 -160q-6 -45 -6 -49q0 -10 5 -17t13 -7q10 0 35 20q21 21 74 53 q87 58 142.5 79.5t117.5 21.5q103 0 162 -55t59 -150q0 -46 -5.5 -83t-39.5 -214q-27 -143 -27 -172q0 -31 10 -42t41 -16q26 -3 38 -14.5t12 -34.5q0 -77 -107 -143q-156 -100 -309 -100q-71 0 -107.5 37.5t-36.5 109.5q0 38 12 104.5t62 313.5q8 27 8 63q0 28 -16.5 48 t-40.5 20q-35 0 -73 -41t-58 -102q-12 -38 -30.5 -135t-28.5 -179q-12 -88 -25.5 -119.5t-48.5 -56.5q-38 -28 -99 -45.5t-118 -17.5q-78 0 -122 30t-44 84z" />
<glyph unicode="i" horiz-adv-x="720" d="M76 768q0 72 88 117q92 47 209 80.5t190 33.5q92 0 92 -90q0 -72 -39 -315l-32 -203q-11 -70 -11 -84q0 -35 39 -35q11 0 17 2h12q49 0 49 -49q0 -66 -82 -127q-76 -54 -165 -84t-169 -30q-70 0 -115.5 41t-45.5 104q0 13 8 70l57 374q12 78 12 93q0 21 -8.5 25.5 t-42.5 6.5q-29 0 -46 19t-17 51zM164 1241q0 67 73.5 123t166.5 83.5t171 27.5q69 0 112.5 -32.5t43.5 -84.5q0 -53 -59.5 -106.5t-152.5 -87.5t-185 -34q-77 0 -123.5 30t-46.5 81z" />
<glyph unicode="j" horiz-adv-x="704" d="M47 -276q0 28 27 55q4 3 7 6l6 6t4.5 8.5t3.5 11t4 15.5t3.5 19.5t4 27t4.5 34t6 43t8 52.5l68 461q24 159 24 186q0 19 -11 31t-30 12h-14q-4 -2 -12 -2q-52 0 -52 60q0 47 35 83t117 74q84 41 176.5 65.5t159.5 24.5q92 0 92 -90q0 -6 -55 -411l-58 -424 q-20 -151 -35 -211t-43 -101q-35 -52 -115 -87t-165 -35q-74 0 -117 23t-43 63zM158 1239q0 68 70 124t162 84t175 28q78 0 122 -32.5t44 -90.5q0 -86 -121.5 -158t-269.5 -72q-79 0 -130.5 33t-51.5 84z" />
<glyph unicode="k" horiz-adv-x="1265" d="M82 1174q0 51 32 86.5t105 64.5t173 48.5t177 19.5q93 0 93 -70q0 -26 -9 -100l-37 -265q-6 -50 -6 -71q0 -11 7 -19t16 -8q7 0 16.5 6t73.5 52q131 90 258 90q114 0 179 -61t65 -167q0 -144 -117 -229q-21 -16 -33.5 -23t-64.5 -32q-12 -6 -20.5 -15.5t-8.5 -15.5 q0 -7 10 -19q26 -33 58 -88q40 -67 54.5 -84t39.5 -26q49 -18 49 -60q0 -45 -57.5 -93t-145 -79.5t-168.5 -31.5q-41 0 -67 13.5t-49 47.5q-8 13 -68 168q-37 100 -66 100q-14 0 -24 -20q-9 -17 -11.5 -24t-6.5 -33t-9 -82q-9 -90 -88 -125q-102 -45 -229 -45 q-119 0 -119 104q0 26 5 57t34 189q96 527 96 708q0 47 -11 66.5t-38 19.5q-7 0 -26.5 -3t-24.5 -3q-17 0 -27 14.5t-10 37.5zM553 477q0 -9 7 -18.5t13 -9.5q10 0 72 32q51 26 91.5 81t43.5 102q2 23 -11.5 40.5t-35.5 18.5q-25 2 -64.5 -28.5t-64.5 -69.5q-15 -25 -33 -77 t-18 -71z" />
<glyph unicode="l" horiz-adv-x="733" d="M82 1184q0 41 25.5 70t85.5 55q77 34 192.5 59t198.5 25q49 0 74.5 -25.5t25.5 -73.5q0 -4 -0.5 -7.5t-1 -11.5t-2 -18.5t-4.5 -35.5t-6 -56l-56 -489q-34 -306 -34 -326q0 -26 12 -44.5t29 -18.5q8 0 24.5 3t24.5 3q20 0 32.5 -15.5t12.5 -41.5q0 -67 -66 -121 q-64 -55 -175.5 -93t-205.5 -38q-82 0 -120.5 37.5t-38.5 115.5q0 67 18 166q28 217 78 594q20 147 20 186q0 41 -30 41q-7 0 -26 -2t-26 -2q-61 0 -61 64z" />
<glyph unicode="m" horiz-adv-x="1906" d="M74 766q0 60 92 111q223 122 358 122q50 0 75.5 -27t31.5 -85q8 -66 37 -66q12 0 39 21q200 157 340 157q163 0 210 -151q3 -17 19 -17q14 0 35 21q75 69 165.5 108t174.5 39q86 0 140 -53t54 -139q0 -41 -10 -119l-43 -282q-10 -64 -10 -78q0 -31 12.5 -43.5t50.5 -16.5 q41 -3 41 -41q0 -54 -63 -111t-160 -94.5t-188 -37.5q-64 0 -98 35t-34 102q0 31 11 110q21 124 38 250t17 152q0 61 -51 61q-71 0 -107.5 -88.5t-58.5 -310.5q-9 -106 -20 -154t-31 -71q-34 -38 -113.5 -62t-175.5 -24q-63 0 -91 25t-28 83q0 42 12 101q64 322 64 421 q0 64 -49 64q-69 0 -108 -99t-56 -319q-13 -160 -41 -192q-31 -35 -116.5 -58.5t-184.5 -23.5q-119 0 -119 104q0 32 12 82q21 97 43.5 257.5t22.5 213.5q0 62 -45 62q-5 0 -14 -3h-15q-29 0 -47 18t-18 46z" />
<glyph unicode="n" horiz-adv-x="1300" d="M76 770q0 60 92 117q65 39 179.5 75.5t172.5 36.5q44 0 67.5 -24.5t30.5 -81.5q5 -37 14 -52.5t27 -15.5q15 0 41 21q120 86 194 119.5t146 33.5q94 0 154.5 -55.5t60.5 -140.5q0 -46 -14 -135l-22 -131q-16 -102 -21 -119q-12 -82 -12 -101q0 -25 9.5 -34t47.5 -21 q39 -12 39 -51q0 -62 -77 -116.5t-169.5 -82.5t-158.5 -28q-68 0 -105 35.5t-37 99.5q0 44 19 145q57 278 57 354q0 29 -16 47.5t-41 18.5q-34 0 -69 -33t-52 -82q-35 -100 -55 -305q-10 -98 -18.5 -131.5t-27.5 -60.5q-28 -39 -103 -63.5t-167 -24.5q-143 0 -143 106 q0 40 22 133q21 80 41.5 220.5t20.5 199.5q0 40 -15 53t-59 13q-53 0 -53 61z" />
<glyph unicode="o" horiz-adv-x="1191" d="M61 369q0 174 91 321t248 232.5t343 85.5q209 0 326 -110.5t117 -305.5q0 -139 -77 -277t-202 -225q-167 -115 -393 -115q-210 0 -331.5 105.5t-121.5 288.5zM518 276q0 -92 66 -92q35 0 58 30.5t38 98.5q20 92 37.5 215t17.5 179q0 98 -61 98q-41 0 -66 -35t-45 -121 q-19 -85 -32 -193.5t-13 -179.5z" />
<glyph unicode="p" horiz-adv-x="1255" d="M76 -203q0 26 10 42.5t41 41.5q29 25 37.5 48t21.5 124q43 326 43 492q0 85 -12.5 110.5t-56.5 26.5q-47 3 -54 8q-28 18 -28 62q0 35 18 56.5t67 47.5t171 78q95 41 130 53t60 12q41 0 62.5 -25.5t25.5 -80.5q6 -66 39 -66q18 0 47 29q75 75 143.5 109t143.5 34 q126 0 197 -102t71 -281q0 -164 -70.5 -312.5t-188 -238.5t-246.5 -90q-34 0 -78 15q-33 10 -41 10q-39 0 -39 -53q0 -57 12 -94q4 -20 15 -30t40 -22q52 -19 52 -63q0 -51 -56 -79t-157 -28q-195 0 -307.5 44.5t-112.5 121.5zM602 238q0 -66 47 -66q26 0 55.5 31t49.5 80 q28 67 47.5 162.5t19.5 160.5q0 99 -63 99q-23 0 -46 -22t-38 -60q-28 -68 -50 -185.5t-22 -199.5z" />
<glyph unicode="q" horiz-adv-x="1226" d="M59 305q0 141 70.5 297t179.5 254q76 69 173 110.5t180 41.5q71 0 147 -45q49 -27 68 -27q26 0 90 37q97 53 155 53q74 0 74 -84q0 -39 -39 -377q-38 -331 -48.5 -443t-10.5 -198q0 -49 15.5 -72.5t66.5 -52.5q26 -13 35.5 -26t9.5 -35q0 -50 -68.5 -78.5t-189.5 -28.5 q-113 0 -223 15t-156 37q-64 30 -64 84q0 30 17.5 47t58.5 26q35 7 47.5 26.5t30.5 86.5q29 118 29 166q0 15 -8 27t-17 12t-19.5 -8.5t-64.5 -59.5q-124 -115 -272 -115q-127 0 -197 86.5t-70 243.5zM504 338q0 -34 13.5 -54t35.5 -20q41 0 98 80t98.5 190t41.5 189 q0 75 -54 78q-42 2 -98 -76.5t-95.5 -190t-39.5 -196.5z" />
<glyph unicode="r" horiz-adv-x="1030" d="M74 776q0 53 33.5 81.5t158.5 82.5q100 43 138 55.5t69 12.5q43 0 67 -24t31 -75q6 -50 16 -70t29 -20q11 0 22 15.5t42 70.5q29 54 68 78.5t96 24.5q94 0 154.5 -68t60.5 -172q0 -98 -53.5 -162.5t-135.5 -64.5q-72 0 -108 45q-10 12 -41 65q-12 21 -23 21 q-14 0 -24 -27q-11 -27 -15.5 -53t-11.5 -109q-13 -129 -20 -225q-4 -112 -26 -160.5t-81 -74.5q-31 -14 -107 -26.5t-128 -12.5q-146 0 -146 104q0 40 35 199q19 90 34 195t15 149q0 67 -39 67h-12q-6 -2 -18 -2q-38 0 -59 21t-21 59z" />
<glyph unicode="s" horiz-adv-x="919" d="M41 176q0 55 31.5 96t72.5 41q25 0 39 -12t41 -61q19 -34 39 -48t49 -14q32 0 56 21t24 49q0 27 -17.5 51.5t-90.5 99.5q-70 73 -102.5 138.5t-32.5 134.5q0 101 72.5 180t178.5 117.5t222 38.5q71 0 136.5 -19t108.5 -53q45 -34 45 -96q0 -55 -31.5 -96.5t-72.5 -41.5 q-23 0 -39 13t-47 57q-25 41 -66 41q-26 0 -42.5 -16.5t-16.5 -42.5q0 -30 23 -61.5t88 -92.5q170 -154 170 -291q0 -149 -135.5 -241.5t-352.5 -92.5q-160 0 -255 54.5t-95 146.5z" />
<glyph unicode="t" horiz-adv-x="823" d="M72 840q0 133 123 145q40 5 55.5 23.5t40.5 93.5q36 112 92 139q37 19 103.5 31t131.5 12q43 0 63 -17.5t19 -54.5l-2 -36l-10 -84l-4 -27l-2 -37q-1 -24 13 -31.5t61 -7.5q5 0 24.5 2t24.5 2q22 0 35.5 -13.5t13.5 -33.5q0 -15 -10.5 -70.5t-14.5 -62.5q-13 -25 -45 -25 h-20q-18 3 -31 3q-49 0 -68.5 -21t-31.5 -86q-15 -77 -29 -180t-14 -139q0 -34 17 -53t46 -19q24 0 52 14q49 25 61 25q22 0 35.5 -19.5t13.5 -50.5q0 -38 -23 -69t-83 -72q-89 -60 -195.5 -98.5t-183.5 -38.5q-94 0 -144.5 49t-50.5 141q0 97 84 545q2 8 2 22q0 23 -17 31 t-63 8q-69 0 -69 60z" />
<glyph unicode="u" horiz-adv-x="1327" d="M76 754q0 35 32 72.5t89 68.5q91 49 185.5 76.5t168.5 27.5q104 0 104 -110q0 -43 -59 -400q-12 -67 -12 -120q0 -31 14 -48.5t37 -17.5q43 0 92 68q70 102 94 344q9 97 26 147.5t48 75.5q35 26 111.5 43.5t154.5 17.5q52 0 79.5 -22.5t27.5 -63.5q0 -30 -8 -73l-62 -363 q-18 -109 -18 -123q0 -34 15.5 -47.5t53.5 -13.5q32 0 46 -11.5t14 -39.5q0 -70 -72 -121q-81 -60 -186 -98.5t-183 -38.5q-43 0 -64 22t-30 80q-12 74 -47 74q-15 0 -41 -21q-98 -73 -191.5 -114t-164.5 -41q-80 0 -132.5 55t-52.5 139q0 74 35 279q27 169 27 188 q0 46 -53 49q-78 3 -78 60z" />
<glyph unicode="v" d="M68 784q0 80 98 129q80 40 171 63t169 23q63 0 97 -29t34 -83q0 -17 -57 -412q-15 -103 -15 -123q0 -52 27.5 -83t73.5 -31q60 0 115 46.5t88.5 124.5t33.5 164q0 94 -63 201q-43 74 -43 115q0 47 45 78.5t114 31.5q95 0 141 -57.5t46 -177.5q0 -145 -42 -287t-116 -248 q-85 -118 -217.5 -186t-278.5 -68q-158 0 -259 82.5t-101 212.5q0 40 7 87t42 245q10 65 10 78q0 27 -13.5 38.5t-51.5 14.5q-32 1 -43.5 12t-11.5 39z" />
<glyph unicode="w" horiz-adv-x="1773" d="M68 791q0 73 82 110q94 40 206.5 69t180.5 29q46 0 73 -31t27 -85t-41 -289q-35 -186 -35 -244q0 -44 17 -72t43 -28q38 0 80 41t67 100q27 66 40 137t26 232q7 93 36 137.5t95 67.5q87 34 231 34q100 0 100 -98q0 -32 -7.5 -76.5t-55.5 -287.5q-27 -140 -27 -183 q0 -65 24 -99t70 -34q92 0 162 107t70 247q0 63 -9 92t-63 148q-20 44 -20 84q0 43 40.5 71.5t100.5 28.5q98 0 142 -62t44 -200q0 -219 -78 -393t-217 -271.5t-315 -97.5q-97 0 -170.5 34.5t-138.5 109.5q-19 22 -31 22q-8 0 -22 -14q-86 -71 -189.5 -111.5t-197.5 -40.5 q-125 0 -204 78t-79 201q0 75 33 264q22 120 22 154q0 29 -9 36.5t-48 12.5q-55 6 -55 70z" />
<glyph unicode="x" horiz-adv-x="1099" d="M68 211q0 63 25 102t65 39q15 0 23.5 -5.5t39.5 -33.5q13 -10 23 -10q20 0 76.5 58.5t56.5 78.5q0 12 -47 99.5t-70 87.5q-13 0 -29 -13q-35 -26 -59 -26q-32 0 -55 28.5t-23 69.5q0 84 111 176q63 53 152.5 95t140.5 42q54 0 86 -47q8 -12 51 -98q28 -52 35.5 -64 t13.5 -12q7 0 23 19q33 41 106 125q38 43 64 59t55 16q58 0 104 -71q51 -81 51 -156q0 -43 -29 -79t-63 -36q-19 0 -45 21q-34 29 -51 29q-22 0 -70.5 -51t-48.5 -74q0 -21 54 -117q47 -84 69 -84q6 0 29 12q32 19 59 19q28 0 52 -25.5t24 -56.5q0 -58 -67 -141t-158.5 -143 t-155.5 -60q-47 0 -86 51q-8 9 -47.5 82t-52.5 100q-12 27 -21 27q-8 0 -22 -19l-105 -119q-106 -120 -172 -120q-44 0 -78 67.5t-34 157.5z" />
<glyph unicode="y" horiz-adv-x="1214" d="M39 -88q0 85 54.5 139.5t139.5 54.5q78 0 123 -40.5t45 -110.5q0 -17 -3 -54t-3 -48q0 -14 10 -24.5t23 -10.5q34 0 62 43.5t28 95.5q0 70 -45.5 212t-118.5 304q-65 139 -100 139q-12 0 -35 -20q-50 -45 -80 -45q-29 0 -57.5 34.5t-28.5 71.5q0 47 56 108t176 144 q138 94 223 94q43 0 74.5 -20t60.5 -66q29 -45 86.5 -189.5t85.5 -240.5q30 -106 40 -129.5t24 -23.5q28 0 53.5 78t25.5 163q0 50 -10.5 79.5t-64.5 123.5q-15 30 -15 68q0 62 49 104.5t119 42.5q176 0 176 -256q0 -160 -56 -347.5t-148 -338.5q-124 -202 -287.5 -313 t-335.5 -111q-151 0 -248.5 81.5t-97.5 207.5z" />
<glyph unicode="z" horiz-adv-x="985" d="M74 70q0 29 17 56.5t71 84.5q23 26 262 299q34 38 58 73t24 44q0 30 -62 30q-97 0 -137 -16q-12 -5 -18 -11.5t-31 -41.5q-26 -39 -61 -39q-26 0 -47 16t-32.5 45.5t-11.5 67.5q0 71 25.5 149t63.5 129.5t73 51.5q18 0 39 -9q31 -9 105.5 -12t242.5 -4q10 0 96 3t111 3 q65 0 94 -16t29 -53q0 -32 -14 -58t-68 -90l-262 -315l-31 -35q-37 -42 -37 -66q0 -32 48 -32q39 0 102 10q23 4 36 15t25 36q17 34 35.5 47.5t46.5 13.5q90 0 90 -114q0 -74 -30.5 -154.5t-76 -134t-87.5 -53.5q-9 0 -17 2q-63 8 -186 8h-98q-30 0 -55.5 0.5t-40 1 t-17.5 0.5q-21 0 -84 -3t-84 -3q-46 0 -76 21t-30 53z" />
<glyph unicode="{" horiz-adv-x="1103" d="M156 500q0 39 22 68t58 38q67 19 94.5 57.5t36.5 127.5l32 307q17 161 96.5 228t252.5 67q81 0 175 -5.5t124 -11.5q41 -7 64.5 -30.5t23.5 -55.5q0 -78 -119 -78h-23q-18 2 -43 2q-95 0 -131 -20q-13 -7 -19 -12.5t-11.5 -14t-9 -30.5t-7 -46t-8.5 -77l-27 -242 q-11 -97 -39 -153.5t-82 -88.5q-10 -7 -10 -16q0 -12 29 -39q51 -48 51 -160q0 -43 -2 -63l-27 -242q-8 -82 -8 -119q0 -44 34 -61.5t120 -17.5q1 0 15.5 1t29.5 1h24q101 0 101 -62q0 -43 -32.5 -71t-92.5 -37q-93 -13 -291 -13q-152 0 -218.5 54.5t-66.5 177.5q0 43 2 63 l33 307q2 8 2 60q0 55 -20 81.5t-74 43.5q-59 18 -59 82z" />
<glyph unicode="|" horiz-adv-x="1024" d="M324 -342v1708h374v-1708h-374z" />
<glyph unicode="}" horiz-adv-x="1103" d="M39 -264q0 78 119 78h22q18 -2 43 -2q89 0 131 20q20 11 28 23.5t13.5 43t14.5 111.5l24 242q9 95 38.5 152t84.5 90q10 7 10 16t-5 15.5t-25 25.5q-52 46 -52 158q0 13 4 63l25 242q10 102 10 121q0 44 -33.5 61.5t-119.5 17.5q-1 0 -15.5 -1t-29.5 -1h-25 q-100 0 -100 60q0 43 32.5 71t92.5 37q89 13 290 13q152 0 218.5 -54.5t66.5 -177.5q0 -17 -4 -63l-33 -307l-2 -58q-1 -55 19.5 -82.5t76.5 -44.5q60 -15 60 -82q0 -38 -21.5 -66.5t-58.5 -39.5q-68 -19 -95 -57t-36 -128l-33 -307q-17 -160 -96.5 -227.5t-249.5 -67.5 q-82 0 -176 5.5t-125 11.5q-41 8 -64.5 31t-23.5 57z" />
<glyph unicode="~" horiz-adv-x="1366" d="M188 1255q60 155 137.5 228t180.5 73q41 0 90 -15.5t211 -78.5q43 -16 70 -16q37 0 66 26.5t61 90.5l178 -152q-64 -162 -138 -230.5t-182 -68.5q-43 0 -81.5 11.5t-149.5 56.5q-101 41 -139 41q-35 0 -64 -27t-61 -90z" />
<glyph unicode="&#xa2;" d="M143 459q0 156 80.5 297.5t227.5 240.5q87 61 172 78q25 5 26 8q7 4 10 25l11 61q7 49 17.5 60.5t47.5 11.5q55 0 85.5 -1.5t50 -5.5t25 -11t5.5 -19q-14 -80 -14 -96q0 -11 10 -16t43 -11q80 -14 134 -80t54 -151q0 -97 -65.5 -165.5t-159.5 -68.5q-57 0 -99 35t-42 82 q0 33 24 86q11 29 11 39q0 12 -10.5 22.5t-22.5 10.5q-63 0 -108.5 -116.5t-45.5 -276.5q0 -78 26.5 -119t76.5 -41q43 0 84.5 16.5t134.5 71.5q33 20 59 20q32 0 55 -29.5t23 -72.5q0 -35 -26 -66.5t-89 -72.5q-110 -70 -204 -86q-22 -6 -28 -11.5t-9 -23.5l-11 -64 q-6 -35 -19 -45t-54 -10q-98 0 -127 7t-29 32q0 9 5 40.5t5 37.5q0 12 -10 16.5t-45 7.5q-126 12 -205.5 110t-79.5 243z" />
<glyph unicode="&#xa3;" d="M14 184q0 77 53 131t128 54q10 0 41 -6.5t40 -6.5q18 0 23.5 13.5t5.5 56.5q0 102 -14 113q-13 10 -125 10q-54 0 -74 17.5t-20 64.5q0 53 20 73t74 19l57 -2q39 0 39 39q0 14 -6 55t-6 57q0 178 134.5 295t340.5 117q160 0 274.5 -85.5t114.5 -205.5q0 -70 -46 -118 t-112 -48q-58 0 -99.5 33.5t-41.5 79.5q0 5 4 39t4 43q0 34 -16 57t-39 23q-40 0 -71 -49t-31 -113q0 -33 7 -99t13 -91q5 -18 18 -24t46 -5l61 2q70 3 70 -86q0 -73 -33 -82q-9 -4 -51 -7t-74 -1q-31 0 -43 -12q-3 -5 -8 -19l-17 -55q-16 -53 -49 -105q-10 -17 -10 -26 q0 -29 73.5 -48.5t121.5 -19.5q53 0 85 28.5t52 92.5q17 54 42 77t68 23q49 0 75 -24t26 -68q0 -65 -33.5 -147.5t-85.5 -145.5q-43 -52 -108 -82t-136 -30q-112 0 -282 75q-57 27 -76 27q-20 0 -62 -33q-50 -36 -82.5 -48.5t-76.5 -12.5q-80 0 -131.5 53t-51.5 137z" />
<glyph unicode="&#xa5;" d="M160 1130q0 66 77 94.5t257 28.5q125 0 175 -21.5t50 -76.5q0 -45 -31 -76q-20 -23 -20 -43t23.5 -94t45.5 -74q12 0 64.5 80.5t52.5 100.5q0 12 -4 19.5t-27 41.5q-12 15 -12 43q0 53 56.5 81t162.5 28q98 0 160 -19q55 -15 55 -80q0 -34 -16 -50.5t-66 -33.5 q-30 -11 -58 -41.5t-116 -150.5l-18 -27q-29 -34 -29 -45q0 -21 49 -14q23 5 53 -4q37 -9 37 -54q0 -33 -20 -43q-10 -7 -21.5 -8.5t-62.5 -1.5h-68q-47 0 -59 -6q-10 -6 -18.5 -30.5t-8.5 -47.5q0 -17 8 -21.5t35 -4.5h95q52 0 71 -12t19 -44q0 -29 -16.5 -41t-55.5 -12 h-113q-30 0 -42.5 -4t-18.5 -16q-14 -28 -14 -160q0 -58 7.5 -72.5t41.5 -25.5q44 -13 61 -30t17 -48q0 -61 -85 -88t-278 -27q-175 0 -247 23.5t-72 80.5q0 35 19.5 54.5t66.5 29.5q34 7 46 39.5t31 163.5q1 5 2 11.5t1.5 10t0.5 5.5q3 12 3 20q0 18 -12 25.5t-40 7.5 l-90 2q-47 0 -59 6q-10 4 -17.5 18t-7.5 29q0 54 78 54h113q33 0 42 4.5t9 21.5q0 49 -14 67.5t-50 18.5h-24q-12 -2 -31 -2q-53 0 -72.5 11t-19.5 42q0 29 17 41.5t57 12.5q33 0 46 6.5t13 21.5t-16 49.5t-17 36.5q-44 104 -53 111q-13 17 -37 25q-35 15 -48 33t-13 50z " />
<glyph unicode="&#xa9;" horiz-adv-x="1593" d="M102 682q0 195 101 358.5t276 258t385 94.5q148 0 284 -57t235.5 -153t159 -227.5t59.5 -273.5q0 -192 -100.5 -355.5t-272.5 -258.5t-375 -95t-376.5 95.5t-274.5 259t-101 354.5zM252 682q0 -155 80.5 -287t219 -209t300.5 -77q122 0 233.5 45.5t191.5 122.5t127.5 183 t47.5 222q0 115 -47.5 221.5t-126.5 184t-188.5 123.5t-227.5 46q-126 0 -239 -45t-194.5 -121.5t-129 -183t-47.5 -225.5zM432 688q0 102 58.5 191t157.5 141.5t212 52.5q84 0 162 -35q33 -16 47 -16l1 0.5t3.5 0.5t5 1t6 1.5l7 1t7 1.5t7 1t7 0.5t5.5 0.5q43 0 77 -57 t34 -129q0 -52 -30.5 -84.5t-80.5 -32.5q-54 0 -86 57q-40 68 -82.5 97.5t-101.5 29.5q-54 0 -86.5 -37.5t-32.5 -101.5q0 -114 66 -188t166 -74q44 0 86 13.5t67 35.5q23 23 41 23q22 0 37.5 -20t15.5 -46q0 -33 -20 -72.5t-49 -62.5q-9 -7 -16.5 -10t-35.5 -9 q-14 -2 -55 -18q-86 -39 -174 -39q-175 0 -300.5 113t-125.5 270z" />
<glyph unicode="&#xad;" horiz-adv-x="581" d="M41 410q0 31 24 108t46 115q28 48 50 67t52 19t55 -4q139 -15 187 -15q65 0 118 11q6 2 17 2q33 0 33 -47q0 -43 -19 -109.5t-49 -128.5q-23 -49 -40 -65.5t-44 -16.5q-10 0 -45 6q-107 15 -205 15q-13 0 -46 -2.5t-42 -2.5l-49 -2q-43 -3 -43 50z" />
<glyph unicode="&#xae;" horiz-adv-x="1593" d="M102 682q0 195 101 358.5t276 258t385 94.5q148 0 284 -57t235.5 -153t159 -227.5t59.5 -273.5q0 -192 -100.5 -355.5t-272.5 -258.5t-375 -95t-376.5 95.5t-274.5 259t-101 354.5zM252 682q0 -155 80.5 -287t219 -209t300.5 -77q122 0 233.5 45.5t191.5 122.5t127.5 183 t47.5 222q0 115 -47.5 221.5t-126.5 184t-188.5 123.5t-227.5 46q-126 0 -239 -45t-194.5 -121.5t-129 -183t-47.5 -225.5zM416 391q0 15 7 23.5t30 23.5q32 20 38.5 72.5t6.5 302.5q0 70 -7 95.5t-30 35.5q-26 10 -35.5 21t-9.5 30q0 32 34.5 50t98.5 18q96 -6 137 -6 q16 0 99.5 5t109.5 5q125 0 199.5 -54t74.5 -145q0 -51 -26 -92t-70 -61q-14 -8 -14 -15q0 -9 22 -18q64 -26 93 -68t38 -122q4 -33 13.5 -43.5t40.5 -18.5q12 -3 21 -15.5t9 -27.5q0 -39 -49.5 -62.5t-132.5 -23.5q-106 0 -153 47t-82 191q-12 47 -31 67.5t-51 20.5 q-19 0 -23 -11t-4 -61q0 -60 8 -96q5 -13 27 -25q37 -21 37 -53q0 -38 -48.5 -55t-162.5 -17q-215 0 -215 82zM764 778q-1 -17 3.5 -22.5t18.5 -5.5q46 0 66 22t20 72q0 96 -69 96q-19 0 -25 -8t-8 -31z" />
<glyph unicode="&#xb4;" horiz-adv-x="1024" d="M510 1165q0 24 10.5 40t61.5 67q39 39 39 59l-9 22q-10 22 -10 31q0 32 70.5 58t156.5 26q85 0 134.5 -25.5t46.5 -68.5q-4 -57 -72.5 -122.5t-167.5 -109.5t-182 -44q-34 0 -56 19t-22 48z" />
<glyph unicode="&#x2000;" horiz-adv-x="781" />
<glyph unicode="&#x2001;" horiz-adv-x="1563" />
<glyph unicode="&#x2002;" horiz-adv-x="781" />
<glyph unicode="&#x2003;" horiz-adv-x="1563" />
<glyph unicode="&#x2004;" horiz-adv-x="521" />
<glyph unicode="&#x2005;" horiz-adv-x="390" />
<glyph unicode="&#x2006;" horiz-adv-x="260" />
<glyph unicode="&#x2007;" horiz-adv-x="260" />
<glyph unicode="&#x2008;" horiz-adv-x="195" />
<glyph unicode="&#x2009;" horiz-adv-x="312" />
<glyph unicode="&#x200a;" horiz-adv-x="86" />
<glyph unicode="&#x2010;" horiz-adv-x="581" d="M41 410q0 31 24 108t46 115q28 48 50 67t52 19t55 -4q139 -15 187 -15q65 0 118 11q6 2 17 2q33 0 33 -47q0 -43 -19 -109.5t-49 -128.5q-23 -49 -40 -65.5t-44 -16.5q-10 0 -45 6q-107 15 -205 15q-13 0 -46 -2.5t-42 -2.5l-49 -2q-43 -3 -43 50z" />
<glyph unicode="&#x2011;" horiz-adv-x="581" d="M41 410q0 31 24 108t46 115q28 48 50 67t52 19t55 -4q139 -15 187 -15q65 0 118 11q6 2 17 2q33 0 33 -47q0 -43 -19 -109.5t-49 -128.5q-23 -49 -40 -65.5t-44 -16.5q-10 0 -45 6q-107 15 -205 15q-13 0 -46 -2.5t-42 -2.5l-49 -2q-43 -3 -43 50z" />
<glyph unicode="&#x2012;" horiz-adv-x="581" d="M41 410q0 31 24 108t46 115q28 48 50 67t52 19t55 -4q139 -15 187 -15q65 0 118 11q6 2 17 2q33 0 33 -47q0 -43 -19 -109.5t-49 -128.5q-23 -49 -40 -65.5t-44 -16.5q-10 0 -45 6q-107 15 -205 15q-13 0 -46 -2.5t-42 -2.5l-49 -2q-43 -3 -43 50z" />
<glyph unicode="&#x2013;" d="M45 414q0 30 57 182q25 66 54.5 95.5t70.5 29.5q27 0 43 -2q120 -14 240 -14h442q120 0 140 4q36 4 38 4q23 0 39.5 -17.5t16.5 -40.5q0 -34 -25 -115t-51 -130q-19 -37 -38.5 -52.5t-45.5 -15.5q-14 0 -98 12q-47 8 -135 8h-357q-179 0 -291 -8q-12 -2 -30 -2 q-31 0 -50.5 17t-19.5 45z" />
<glyph unicode="&#x2014;" horiz-adv-x="1748" d="M47 412q0 23 32 114t54 127q21 36 42.5 52t53.5 16q27 0 43 -2q120 -14 240 -14h1051q119 0 139 4q36 4 39 4q23 0 39 -17.5t16 -42.5q0 -32 -25.5 -115t-50.5 -128q-21 -37 -40 -52.5t-46 -15.5q-12 0 -96 12q-47 8 -133 8h-967q-182 0 -291 -8q-12 -2 -32 -2 q-29 0 -48.5 17t-19.5 43z" />
<glyph unicode="&#x2018;" horiz-adv-x="600" d="M178 885q0 73 30 160t85 169q53 79 107 129t87 50q29 0 65 -35t36 -62q0 -18 -35 -61q-37 -45 -60.5 -91t-23.5 -75q0 -18 8.5 -29t32.5 -24q57 -34 82.5 -79.5t25.5 -113.5q0 -97 -55 -153t-151 -56q-111 0 -172.5 71t-61.5 200z" />
<glyph unicode="&#x2019;" horiz-adv-x="600" d="M205 1184q0 97 55 153t152 56q110 0 171.5 -71t61.5 -200q0 -150 -115 -329q-52 -78 -106.5 -128.5t-87.5 -50.5q-29 0 -64.5 35t-35.5 62q0 19 34 61q37 45 60.5 91t23.5 75q0 18 -8.5 29t-32.5 24q-57 34 -82.5 79.5t-25.5 113.5z" />
<glyph unicode="&#x201c;" horiz-adv-x="1103" d="M178 885q0 73 30 160t85 169q53 79 107 129t87 50q29 0 65 -35t36 -62q0 -18 -35 -61q-37 -45 -60.5 -91t-23.5 -75q0 -18 8.5 -29t32.5 -24q57 -34 82.5 -79.5t25.5 -113.5q0 -97 -55 -153t-151 -56q-111 0 -172.5 71t-61.5 200zM682 885q0 73 30 160t85 169 q53 79 107 129t87 50q29 0 65 -35t36 -62q0 -18 -35 -61q-37 -45 -60.5 -91t-23.5 -75q0 -18 8.5 -29t32.5 -24q57 -34 82.5 -79.5t25.5 -113.5q0 -97 -55 -153t-152 -56q-110 0 -171.5 71t-61.5 200z" />
<glyph unicode="&#x201d;" horiz-adv-x="1103" d="M205 1184q0 97 55 153t152 56q110 0 171.5 -71t61.5 -200q0 -150 -115 -329q-52 -78 -106.5 -128.5t-87.5 -50.5q-29 0 -64.5 35t-35.5 62q0 19 34 61q37 45 60.5 91t23.5 75q0 18 -8.5 29t-32.5 24q-57 34 -82.5 79.5t-25.5 113.5zM709 1184q0 97 55 153t151 56 q111 0 172.5 -71t61.5 -200q0 -150 -115 -329q-50 -76 -105 -127.5t-87 -51.5q-29 0 -65 34.5t-36 62.5q0 20 33 61q38 46 61 91.5t23 74.5q0 18 -8.5 29t-32.5 24q-57 34 -82.5 79.5t-25.5 113.5z" />
<glyph unicode="&#x2022;" horiz-adv-x="1366" d="M401 692q0 120 83.5 202.5t203.5 82.5q115 0 198 -84t83 -201t-83 -199.5t-200 -82.5q-118 0 -201.5 82.5t-83.5 199.5z" />
<glyph unicode="&#x2026;" horiz-adv-x="1880" d="M82 180q0 94 67 158.5t164 64.5t154 -55t57 -147q0 -100 -66 -164t-167 -64q-92 0 -150.5 58t-58.5 149zM709 180q0 94 67 158.5t164 64.5t154 -55t57 -147q0 -100 -66 -164t-167 -64q-92 0 -150.5 58t-58.5 149zM1335 180q0 94 67.5 158.5t164.5 64.5t154 -55t57 -147 q0 -99 -66 -163.5t-168 -64.5q-92 0 -150.5 58t-58.5 149z" />
<glyph unicode="&#x202f;" horiz-adv-x="312" />
<glyph unicode="&#x205f;" horiz-adv-x="390" />
<glyph unicode="&#x20ac;" horiz-adv-x="1478" d="M102 537q0 1 21 36q35 49 56.5 65.5t49.5 16.5q19 0 29 -2l27 -2h8q4 21 18 64h-18q-31 0 -47 -2h-78q-15 0 -27 6t-12 14t35 53q30 38 48 51t44 13q17 0 31 -2h16l14 -2q32 0 50 -2q105 196 278 310t363 114q93 0 188 -33q24 -6 31 -6q70 18 76 18q66 0 126 -91t60 -191 q0 -81 -45.5 -134t-114.5 -53q-87 0 -137 82l-45 76q-46 74 -119 74q-54 0 -104 -43t-88 -123h229l14 2h13q12 0 22 -6t10 -13q0 -16 -32 -59q-27 -36 -45 -48.5t-41 -12.5h-5l-10 2q-8 0 -16 2q-29 4 -111 4h-73q-11 -41 -15 -68h103q71 0 77 2h17q6 0 14 2h4 q12 0 21.5 -5.5t9.5 -12.5q0 -12 -23 -45q-34 -48 -51 -62t-41 -14h-18q-86 8 -121 8q5 -113 56 -179.5t134 -66.5q104 0 197 93l100 100q35 35 82 35q43 0 71 -32t28 -79q0 -92 -54 -184t-112 -98l-41 -5q-22 -6 -47 -18q-120 -63 -205 -87t-186 -24q-241 0 -382 131.5 t-141 356.5q0 34 2 57q-102 -4 -108 -4h-21q-15 0 -27 6.5t-12 14.5z" />
<glyph unicode="&#x2122;" horiz-adv-x="1869" d="M129 1176q0 69 51.5 134.5t106.5 65.5q7 0 38 -5t46 -5h260l59 2q82 2 107 8q20 4 24 4q44 0 82.5 -57t38.5 -123q0 -49 -29 -79.5t-75 -30.5q-34 0 -52.5 18t-42.5 78q-16 39 -34 39q-14 0 -20 -17t-15 -80q-31 -246 -31 -350q0 -30 7 -39.5t40 -23.5q25 -11 34 -21 t9 -28q0 -86 -293 -86q-113 0 -166 19t-53 60q0 27 13 38t63 26q20 6 28.5 29t22.5 104q10 64 25.5 188.5t15.5 143.5q0 31 -22 31q-21 0 -35 -33q-29 -62 -52 -82.5t-61 -20.5q-40 0 -65 26t-25 67zM868 651q0 44 43 56q26 9 31.5 13t13.5 19q34 75 72.5 221t38.5 205 q0 34 -9.5 43.5t-58.5 24.5q-30 10 -30 49q0 44 66 69t186 25q95 0 122 -37q28 -35 91 -215q21 -63 34 -63q14 0 41.5 41.5t112.5 187.5q28 47 70 65.5t123 18.5q94 0 137 -19.5t43 -62.5q0 -44 -43 -55q-33 -10 -44.5 -27t-17.5 -65q-6 -52 -13 -180t-7 -181q0 -36 5 -45.5 t36 -29.5q24 -15 24 -41q0 -45 -62 -64.5t-206 -19.5q-95 0 -136.5 16.5t-41.5 54.5q0 41 47 56q22 6 28.5 14t12.5 37q27 121 27 166q0 9 -4 14.5t-9 5.5q-8 0 -13 -6.5t-24 -36.5q-28 -46 -73.5 -112t-61.5 -84q-32 -35 -61 -35q-24 0 -34 12q-17 21 -75 179l-18 48 q-9 27 -21 27q-6 0 -9 -6.5t-7 -32.5q-29 -138 -29 -162q0 -19 21 -34q26 -19 32.5 -27t6.5 -23q0 -43 -46 -60t-159 -17q-80 0 -116 17.5t-36 55.5z" />
<glyph unicode="&#xe000;" horiz-adv-x="1003" d="M0 0v1004h1004v-1004h-1004z" />
</font>
</defs>
</svg>
